<svg width="100" height="100" viewBox="0 0 100 100" fill="none" xmlns="http://www.w3.org/2000/svg">
<path d="M83.8876 10.214C85.4303 11.5094 86.4409 12.4908 86.6788 14.5645C86.6181 16.0259 86.1139 17.1939 85.2863 18.3891C84.4233 19.1737 84.4233 19.1737 83.7172 19.6444C83.8911 19.7884 84.0651 19.9324 84.2443 20.0808C84.5853 20.3696 84.5853 20.3696 84.9332 20.6643C85.1589 20.8536 85.3847 21.0429 85.6172 21.238C86.6159 22.2246 86.9486 23.0746 86.973 24.4693C86.9819 24.6983 86.9908 24.9273 87 25.1632C86.6517 26.9874 85.1521 28.348 83.8842 29.6256C83.7166 29.7968 83.5491 29.968 83.3765 30.1444C82.8266 30.7049 82.2743 31.2631 81.7215 31.8207C81.5319 32.0125 81.3423 32.2043 81.147 32.4019C80.1448 33.4153 79.1407 34.4268 78.135 35.4368C77.0989 36.4781 76.0695 37.5258 75.0415 38.5752C74.2472 39.3836 73.448 40.187 72.6474 40.9892C72.2657 41.3733 71.8859 41.7593 71.508 42.1472C70.9786 42.6896 70.4427 43.2246 69.9046 43.7584C69.7513 43.9187 69.598 44.0789 69.44 44.244C68.1692 45.4814 67.2269 45.6432 65.5158 45.6912C64.7276 45.332 64.7276 45.332 64.0448 44.8086C61.1334 42.8944 57.5685 42.9176 54.2184 43.4945C51.3196 44.2318 48.8049 46.0342 46.981 48.3979C46.1646 49.7849 46.1646 49.7849 46.0591 51.3399C47.6339 54.2712 50.1658 56.0133 53.2769 56.9886C56.1483 57.6801 59.0209 57.48 61.75 56.361C62.0218 56.1927 62.2937 56.0244 62.5738 55.851C63.6329 55.2379 64.6235 55.0494 65.8296 55.1057C67.6769 55.6599 68.5953 56.5867 69.8627 58.0159C71.6664 60.0123 73.56 61.9121 75.4721 63.8043C75.7768 64.1065 76.0815 64.4086 76.3862 64.7108C77.647 65.9606 78.909 67.2093 80.174 68.4549C80.9577 69.2267 81.739 70.0008 82.5189 70.7764C82.9556 71.2094 83.3948 71.6398 83.8341 72.0702C84.0984 72.3333 84.3626 72.5965 84.6349 72.8676C84.8674 73.0971 85.1 73.3266 85.3396 73.5631C86.0851 74.4529 86.512 75.2979 86.5783 76.4649C86.3485 78.303 85.7309 79.2863 84.2664 80.466C84.0851 80.589 83.9039 80.712 83.7172 80.8387C84.1585 81.8412 84.6956 82.4956 85.4628 83.2708C86.6283 84.5798 86.9119 85.3607 86.8553 87.115C85.7974 90.5709 81.3715 92.725 78.3706 94.3693C76.9297 95.1305 75.4746 95.8598 73.9889 96.5296C73.7536 96.6356 73.5183 96.7417 73.2759 96.851C71.2123 97.7308 69.147 98.2119 66.9476 98.6282C66.4509 98.728 66.4509 98.728 65.9442 98.8299C56.2586 100.719 46.1169 99.6718 37.2723 95.2743C36.9183 95.1068 36.5643 94.9393 36.1997 94.7668C25.3172 89.3323 18.2044 79.2706 14.2754 68.0825C12.4299 62.1966 12.3285 56.0919 12.358 49.9779C12.3631 48.7277 12.358 47.4778 12.352 46.2275C12.3473 40.9847 12.6008 36.2181 14.4225 31.2556C14.5649 30.8614 14.5649 30.8614 14.7102 30.4591C17.2436 23.6318 21.154 18.1786 26.2887 13.0542C26.5524 12.7869 26.8162 12.5195 27.0879 12.244C42.4039 -2.41187 67.469 -2.37109 83.8876 10.214Z" fill="#FF621F"/>
<path d="M12.7945 51.9673C13.3379 52.9567 13.6341 53.9156 13.9088 55.0087C13.9988 55.3572 14.0889 55.7057 14.1816 56.0647C14.3661 56.7892 14.5492 57.5141 14.7308 58.2394C16.6187 65.5107 20.8637 71.3854 25.9749 76.7589C26.1925 77.0004 26.4101 77.2419 26.6344 77.4907C30.6219 81.7631 36.0994 84.9997 41.6069 86.8795C41.8107 86.9492 42.0146 87.0189 42.2246 87.0908C42.975 87.3303 43.7289 87.5393 44.4901 87.7425C44.6806 87.7941 44.8711 87.8457 45.0674 87.8989C48.8765 88.9081 52.5027 89.2254 56.4347 89.1939C56.714 89.1932 56.9932 89.1926 57.2809 89.192C62.0289 89.1697 66.3251 88.6335 70.8507 87.1148C71.2402 86.9947 71.6298 86.8745 72.0312 86.7507C75.613 85.5215 79.2012 83.5228 82.1481 81.1523C83.0984 81.0773 83.5394 81.3221 84.2713 81.9148C85.4126 82.9938 86.3605 84.0302 86.8553 85.5457C86.8859 87.4698 86.4662 88.2989 85.2093 89.7022C84.3333 90.5784 83.3723 91.2727 82.3442 91.9594C82.1271 92.1063 81.91 92.2532 81.6862 92.4045C79.6055 93.7805 77.4376 94.9184 75.1723 95.9573C74.6896 96.1816 74.214 96.421 73.74 96.663C64.7555 100.95 52.3311 100.598 42.921 97.7846C40.9734 97.086 39.1228 96.1943 37.2723 95.2743C36.9183 95.1068 36.5643 94.9393 36.1997 94.7668C25.3172 89.3323 18.2044 79.2706 14.2754 68.0825C13.0268 64.1005 10.8058 55.9448 12.7945 51.9673Z" fill="#FFCEAC"/>
<path d="M83.0896 19.6442C84.7793 20.5698 85.9613 21.308 86.8554 23.0962C86.9302 23.7091 86.9302 23.7091 86.9535 24.4299C86.9711 24.7819 86.9711 24.7819 86.989 25.1409C86.674 26.9793 85.1554 28.3447 83.8842 29.6256C83.7166 29.7968 83.5491 29.968 83.3765 30.1444C82.8266 30.7049 82.2743 31.2631 81.7215 31.8207C81.5319 32.0125 81.3423 32.2043 81.147 32.4019C80.1448 33.4153 79.1407 34.4268 78.135 35.4368C77.0989 36.4781 76.0695 37.5258 75.0415 38.5752C74.2472 39.3836 73.448 40.187 72.6474 40.9892C72.2657 41.3733 71.8859 41.7593 71.508 42.1472C70.9786 42.6896 70.4427 43.2246 69.9046 43.7584C69.7513 43.9187 69.598 44.0789 69.44 44.244C68.1692 45.4814 67.2269 45.6432 65.5158 45.6912C64.7276 45.332 64.7276 45.332 64.0448 44.8086C61.1334 42.8944 57.5685 42.9176 54.2184 43.4945C50.8696 44.3463 48.1676 46.5406 46.373 49.4568C46.1513 49.8687 45.9338 50.2839 45.7454 50.7121C45.5383 50.7121 45.3312 50.7121 45.1178 50.7121C43.8226 47.7439 43.474 44.2496 44.6397 41.1799C46.2238 37.5852 48.6789 35.0069 52.3356 33.4522C54.0464 33.0481 55.7248 33.0687 57.4743 33.0599C57.7931 33.0534 58.1119 33.047 58.4403 33.0403C60.5501 33.0293 62.2718 33.1371 63.9076 34.6094C64.8162 35.1706 65.4901 35.3176 66.5574 35.2493C67.6601 34.9504 68.1635 34.4512 68.9924 33.6642C69.1504 33.5151 69.3083 33.366 69.4711 33.2123C72.1524 30.6582 74.7507 28.0157 77.3625 25.391C77.9197 24.8321 78.4771 24.2734 79.0345 23.7147C80.3871 22.3587 81.7387 21.0018 83.0896 19.6442Z" fill="#FFCEAC"/>
<path d="M49.5112 35.0214C49.7183 35.125 49.9254 35.2286 50.1388 35.3353C48.8961 36.578 47.6534 37.8207 46.373 39.1011C46.373 37.934 46.6473 37.7324 47.4125 36.8847C47.702 36.5589 47.702 36.5589 47.9973 36.2265C48.5697 35.6491 48.5697 35.6491 49.5112 35.0214Z" fill="#FFCEAC"/>
</svg>
