<?xml version="1.0" encoding="utf-8"?>
<!-- Generator: Adobe Illustrator 27.5.0, SVG Export Plug-In . SVG Version: 6.00 Build 0)  -->
<svg version="1.1" xmlns="http://www.w3.org/2000/svg" xmlns:xlink="http://www.w3.org/1999/xlink" x="0px" y="0px"
	 viewBox="0 0 500 500" style="enable-background:new 0 0 500 500;" xml:space="preserve">
<g id="BACKGROUND">
	<rect style="fill:#7E5EFF;" width="500" height="500"/>
</g>
<g id="OBJECTS">
	<path style="fill:#6E46FF;" d="M250.758,449.362c30.47,5.342,62.538,5.822,91.627-4.704c29.089-10.525,54.794-33.357,63.301-63.099
		c8.507-29.742-11.254-55.748-28.35-81.53c-22.508-33.943-30.653-76.807-40.465-116.335c-6.997-28.188-23.165-54.021-45.461-72.633
		C269.115,92.45,236.439,81.26,207.469,79.21c-49.077-3.471-99.297,16.528-132.551,52.788
		c-33.254,36.26-48.845,88.018-41.151,136.612c7.855,49.61,37.586,94.339,77.21,125.206
		C150.603,424.682,201.285,440.689,250.758,449.362z"/>
	<g>
		<circle style="fill:#FFBE00;" cx="218.02" cy="113.074" r="3.699"/>
		<path style="fill:#FF9A7D;" d="M125.86,154.786c0-2.043-1.656-3.699-3.699-3.699c-2.043,0-3.699,1.656-3.699,3.699
			s1.656,3.699,3.699,3.699C124.204,158.485,125.86,156.829,125.86,154.786z"/>
		<path style="fill:#FF9A7D;" d="M82.586,289.041c0-2.043-1.656-3.699-3.699-3.699c-2.043,0-3.699,1.656-3.699,3.699
			c0,2.043,1.656,3.699,3.699,3.699C80.929,292.74,82.586,291.084,82.586,289.041z"/>
		<path style="fill:#FF6400;" d="M314.063,426.804c0-2.043-1.656-3.699-3.699-3.699c-2.043,0-3.699,1.656-3.699,3.699
			c0,2.043,1.656,3.699,3.699,3.699C312.407,430.503,314.063,428.847,314.063,426.804z"/>
		<path style="fill:#FF6400;" d="M435.797,341.267c0-2.043-1.656-3.699-3.699-3.699c-2.043,0-3.699,1.656-3.699,3.699
			c0,2.043,1.656,3.699,3.699,3.699C434.141,344.966,435.797,343.31,435.797,341.267z"/>
		<circle style="fill:#FF6400;" cx="463.532" cy="261.629" r="3.699"/>
		<path style="fill:#FF6400;" d="M201.441,127.066c0-2.043-1.656-3.699-3.699-3.699s-3.699,1.656-3.699,3.699
			s1.656,3.699,3.699,3.699S201.441,129.109,201.441,127.066z"/>
		<circle style="fill:#FFBE00;" cx="287.05" cy="128.38" r="2.24"/>
		<path style="fill:#FFFFFF;" d="M154.852,152.546c0-1.237-1.003-2.24-2.24-2.24c-1.237,0-2.24,1.003-2.24,2.24
			s1.003,2.24,2.24,2.24C153.849,154.786,154.852,153.783,154.852,152.546z"/>
		<path style="fill:#FFFFFF;" d="M108.225,188.112c0-1.237-1.003-2.24-2.24-2.24c-1.237,0-2.24,1.003-2.24,2.24
			s1.003,2.24,2.24,2.24C107.222,190.352,108.225,189.349,108.225,188.112z"/>
		<path style="fill:#FFFFFF;" d="M66.785,167.808c0-1.237-1.003-2.24-2.24-2.24c-1.237,0-2.24,1.003-2.24,2.24
			c0,1.237,1.003,2.24,2.24,2.24C65.782,170.048,66.785,169.045,66.785,167.808z"/>
		<path style="fill:#FFBE00;" d="M92.554,202.898c0-1.237-1.003-2.24-2.24-2.24c-1.237,0-2.24,1.003-2.24,2.24
			c0,1.237,1.003,2.24,2.24,2.24C91.551,205.138,92.554,204.135,92.554,202.898z"/>
		<circle style="fill:#FF6400;" cx="60.797" cy="267.518" r="2.24"/>
		<path style="fill:#FF9A7D;" d="M338.465,409.383c0-1.237-1.003-2.24-2.24-2.24s-2.24,1.003-2.24,2.24s1.003,2.24,2.24,2.24
			S338.465,410.621,338.465,409.383z"/>
		<path style="fill:#FFBE00;" d="M339.569,434.92c0-1.237-1.003-2.24-2.24-2.24s-2.24,1.003-2.24,2.24c0,1.237,1.003,2.24,2.24,2.24
			S339.569,436.158,339.569,434.92z"/>
		<path style="fill:#FFBE00;" d="M455.883,324.922c0-1.237-1.003-2.24-2.24-2.24c-1.237,0-2.24,1.003-2.24,2.24
			s1.003,2.24,2.24,2.24C454.88,327.162,455.883,326.159,455.883,324.922z"/>
		<path style="fill:#FF9A7D;" d="M423.432,278.493c0-1.237-1.003-2.24-2.24-2.24s-2.24,1.003-2.24,2.24
			c0,1.237,1.003,2.24,2.24,2.24S423.432,279.73,423.432,278.493z"/>
		<circle style="fill:#FFFFFF;" cx="464.407" cy="217.896" r="2.24"/>
		<path style="fill:#FFBE00;" d="M392.743,180.588c0-1.237-1.003-2.24-2.24-2.24s-2.24,1.003-2.24,2.24
			c0,1.237,1.003,2.24,2.24,2.24S392.743,181.825,392.743,180.588z"/>
		<path style="fill:#FF9A7D;" d="M371.827,166.651c0-1.237-1.003-2.24-2.24-2.24c-1.237,0-2.24,1.003-2.24,2.24
			c0,1.237,1.003,2.24,2.24,2.24C370.824,168.891,371.827,167.888,371.827,166.651z"/>
		<path style="fill:#FFFFFF;" d="M431.788,269.759c0-1.237-1.003-2.24-2.24-2.24c-1.237,0-2.24,1.003-2.24,2.24
			c0,1.237,1.003,2.24,2.24,2.24C430.785,271.999,431.788,270.996,431.788,269.759z"/>
		<polygon style="fill:#FFFFFF;" points="254.323,146.761 257.754,134.39 245.324,137.604 		"/>
		<polygon style="fill:#FFBE00;" points="376.935,437.474 387.212,429.78 375.41,424.727 		"/>
		<polygon style="fill:#FF6400;" points="73.42,140.039 66.328,129.337 60.606,140.83 		"/>
		<polygon style="fill:#FF9A7D;" points="32.425,295.423 42.785,287.839 31.038,282.66 		"/>
	</g>
	<g>
		<g>
			<path style="fill:#FA101D;" d="M134.814,441.08c11.255,15.384,32.851,18.731,48.234,7.475
				c15.384-11.255,18.731-32.851,7.476-48.234L134.814,441.08z"/>
			<path style="fill:#FF6400;" d="M138.529,438.362c9.754,13.332,28.47,16.233,41.803,6.479c13.333-9.755,16.233-28.47,6.479-41.803
				L138.529,438.362z"/>
			<path style="fill:#FA101D;" d="M154.568,426.627c3.273,4.474,9.554,5.447,14.028,2.174c4.474-3.273,5.448-9.554,2.174-14.028
				L154.568,426.627z"/>
			<path style="fill:#FF8200;" d="M153.382,435.226c0.789-1.694-0.728-3.639-2.56-3.269c-1.206,0.243-2.35,0.801-3.256,1.635
				c-0.908,0.836-1.559,1.932-1.901,3.117c-0.53,1.84,1.363,3.497,3.143,2.792c0.989-0.392,1.912-0.95,2.661-1.615
				C152.253,437.19,152.905,436.251,153.382,435.226z"/>
			<path style="fill:#FF8200;" d="M159.692,437.128c-0.076-1.627-2.025-2.453-3.236-1.365c-0.902,0.81-1.629,1.814-2.099,2.931
				c-0.485,1.153-0.692,2.417-0.621,3.665c0.085,1.499,1.866,2.314,3.066,1.413c1.03-0.773,1.875-1.771,2.312-2.95
				C159.528,439.706,159.751,438.395,159.692,437.128z"/>
			<path style="fill:#FF8200;" d="M167.676,437.944c-0.799-1.421-2.745-1.516-3.666-0.171c-0.757,1.105-1.204,2.423-1.23,3.763
				c-0.028,1.423,0.419,2.841,1.217,4.018c0.835,1.23,2.692,1.161,3.499-0.087c0.727-1.122,1.205-2.402,1.247-3.697
				C168.784,440.495,168.351,439.146,167.676,437.944z"/>
			<path style="fill:#FF8200;" d="M178.357,440.575c-0.075,1.641-1.854,2.697-3.331,1.978c-1.018-0.495-1.91-1.251-2.537-2.194
				c-0.657-0.988-1.012-2.163-1.05-3.348c-0.055-1.724,1.712-2.931,3.294-2.245c1.064,0.461,2.033,1.169,2.729,2.021
				C178.232,437.729,178.422,439.158,178.357,440.575z"/>
			<path style="fill:#FF8200;" d="M185.48,431.488c0.42,1.572-0.797,3.122-2.424,3.156c-1.236,0.026-2.48-0.282-3.542-0.918
				c-0.988-0.592-1.8-1.458-2.36-2.463c-0.928-1.667,0.207-3.7,2.111-3.82c1.412-0.088,2.85,0.133,3.991,0.75
				C184.522,428.878,185.112,430.11,185.48,431.488z"/>
			<path style="fill:#FF8200;" d="M187.171,419.559c1.531,0.7,1.73,2.861,0.273,3.702c-1.188,0.686-2.542,1.087-3.914,1.13
				c-1.421,0.044-2.847-0.297-4.109-0.951c-1.461-0.757-1.495-2.926-0.029-3.672c1.139-0.58,2.432-0.907,3.711-1.032
				C184.413,418.608,185.853,418.956,187.171,419.559z"/>
			<path style="fill:#FF8200;" d="M182.994,409.515c1.511-0.42,2.853,1.016,2.353,2.502c-0.414,1.232-1.156,2.354-2.152,3.19
				c-1.056,0.886-2.38,1.434-3.748,1.595c-1.46,0.172-2.502-1.399-1.891-2.737c0.492-1.078,1.185-2.041,2.135-2.846
				C180.646,410.411,181.785,409.851,182.994,409.515z"/>
		</g>
		<g>
			<path style="fill:#FA101D;" d="M224.789,415.599c-12.699,14.215-11.47,36.034,2.746,48.733
				c14.215,12.699,36.034,11.47,48.733-2.745L224.789,415.599z"/>
			<path style="fill:#FF6400;" d="M228.221,418.665c-11.006,12.32-9.94,31.229,2.38,42.235c12.32,11.006,31.229,9.941,42.235-2.379
				L228.221,418.665z"/>
			<path style="fill:#FA101D;" d="M243.042,431.906c-3.693,4.134-3.336,10.48,0.798,14.173c4.134,3.693,10.48,3.336,14.173-0.798
				L243.042,431.906z"/>
			<path style="fill:#FF8200;" d="M234.386,432.538c1.821,0.418,3.407-1.47,2.663-3.185c-0.49-1.129-1.274-2.131-2.278-2.844
				c-1.007-0.714-2.215-1.122-3.445-1.209c-1.91-0.135-3.136,2.063-2.075,3.656c0.589,0.885,1.327,1.672,2.134,2.265
				C232.229,431.843,233.284,432.285,234.386,432.538z"/>
			<path style="fill:#FF8200;" d="M233.841,439.106c1.575-0.414,1.977-2.492,0.661-3.45c-0.98-0.713-2.114-1.215-3.304-1.442
				c-1.228-0.234-2.508-0.173-3.714,0.157c-1.448,0.396-1.874,2.307-0.742,3.294c0.971,0.846,2.123,1.464,3.367,1.646
				C231.285,439.482,232.614,439.428,233.841,439.106z"/>
			<path style="fill:#FF8200;" d="M234.708,447.084c1.223-1.077,0.91-3.001-0.597-3.621c-1.238-0.51-2.621-0.672-3.937-0.419
				c-1.398,0.269-2.691,1.002-3.676,2.029c-1.029,1.073-0.574,2.875,0.814,3.405c1.249,0.477,2.601,0.678,3.875,0.449
				C232.443,448.7,233.673,447.995,234.708,447.084z"/>
			<path style="fill:#FF8200;" d="M234.361,458.08c-1.62,0.268-3.024-1.251-2.629-2.845c0.272-1.099,0.825-2.129,1.616-2.939
				c0.829-0.848,1.905-1.441,3.056-1.725c1.674-0.413,3.223,1.063,2.882,2.753c-0.229,1.137-0.719,2.232-1.408,3.09
				C237.118,457.364,235.76,457.848,234.361,458.08z"/>
			<path style="fill:#FF8200;" d="M244.733,463.151c-1.45,0.739-3.22-0.129-3.592-1.712c-0.283-1.204-0.241-2.485,0.159-3.656
				c0.373-1.09,1.05-2.064,1.917-2.822c1.437-1.255,3.662-0.57,4.176,1.268c0.381,1.362,0.464,2.815,0.099,4.06
				C247.087,461.67,246.004,462.504,244.733,463.151z"/>
			<path style="fill:#FF8200;" d="M256.753,462.318c-0.366,1.643-2.437,2.289-3.564,1.038c-0.918-1.019-1.593-2.259-1.921-3.592
				c-0.34-1.381-0.304-2.846,0.073-4.217c0.436-1.586,2.55-2.072,3.586-0.794c0.805,0.993,1.394,2.19,1.783,3.414
				C257.108,459.422,257.068,460.903,256.753,462.318z"/>
			<path style="fill:#FF8200;" d="M265.705,456.138c0.726,1.39-0.399,3.002-1.956,2.823c-1.291-0.148-2.544-0.64-3.569-1.44
				c-1.086-0.848-1.898-2.029-2.341-3.333c-0.473-1.392,0.847-2.738,2.282-2.42c1.157,0.257,2.243,0.733,3.228,1.495
				C264.339,454.029,265.124,455.026,265.705,456.138z"/>
		</g>
	</g>
	<g>
		<g>
			<path style="fill:#A92A23;" d="M410.663,305.963c0,40.327-58.374,69.64-80.317,77.335c-20.704,7.262-48.154,11.266-77.287,11.266
				c-29.145,0-56.594-4.004-77.299-11.266c-21.943-7.695-80.317-43.934-80.317-75.387c0-0.926,0.457-3.871,1.25-8.2
				c1.274-7.058,3.403-17.771,5.771-29.385c5.663-27.762,12.697-60.598,12.697-60.598l34.639-23.013l96.212-17.169l112.347,18.468
				l32.055,19.959c0,0,7.442,33.942,13.31,61.921c2.513,11.999,4.737,22.905,5.951,29.566
				C410.302,302.885,410.663,305.194,410.663,305.963z"/>
			<path style="fill:#952116;" d="M409.677,299.458c-8.705,8.32-22.135,15.811-39.774,21.991
				c-31.297,10.977-72.79,17.025-116.844,17.025c-44.066,0-85.559-6.048-116.856-17.025c-17.458-6.12-30.792-13.515-39.509-21.738
				c1.274-7.058,3.403-17.771,5.771-29.385c2.32,10.641,17.266,21.294,41.806,29.626c28.976,9.835,67.608,15.246,108.788,15.246
				c41.168,0,79.8-5.41,108.776-15.246c24.865-8.44,39.882-19.286,41.89-30.059C406.239,281.892,408.463,292.797,409.677,299.458z"
				/>
			<path style="fill:none;stroke:#000000;stroke-width:2;stroke-linecap:round;stroke-linejoin:round;stroke-miterlimit:10;" d="
				M201.114,383.714c44.553,9.11,91.872,8.545,134.414-7.524"/>
		</g>
		<g>
			<g>
				<path style="fill:#FFA000;" d="M254.519,262.493c-35.112,0-132.291-26.54-125.974-32.473
					c6.945-6.522,17.531-12.381,31.375-17.236c24.946-8.748,58.022-13.565,93.134-13.565c35.112,0,68.188,4.818,93.134,13.565
					c14.026,4.919,24.709,10.869,31.647,17.494C383.975,236.14,289.631,262.493,254.519,262.493z"/>
				<g>
					<path style="fill:none;stroke:#000000;stroke-width:2;stroke-linecap:round;stroke-linejoin:round;stroke-miterlimit:10;" d="
						M207.011,248.835c1.509,0.094,3.018,0.189,4.527,0.283"/>
					<path style="fill:none;stroke:#000000;stroke-width:2;stroke-linecap:round;stroke-linejoin:round;stroke-miterlimit:10;" d="
						M222.809,242.614c0.082,1.321,0.164,2.642,0.247,3.963"/>
					<path style="fill:none;stroke:#000000;stroke-width:2;stroke-linecap:round;stroke-linejoin:round;stroke-miterlimit:10;" d="
						M234.736,249.118c1.037,0.094,2.075,0.189,3.112,0.283"/>
					<path style="fill:none;stroke:#000000;stroke-width:2;stroke-linecap:round;stroke-linejoin:round;stroke-miterlimit:10;" d="
						M293.297,247.137c1.509-0.283,3.018-0.566,4.526-0.849"/>
					<path style="fill:none;stroke:#000000;stroke-width:2;stroke-linecap:round;stroke-linejoin:round;stroke-miterlimit:10;" d="
						M300.087,242.894c1.226,0.849,2.452,1.697,3.678,2.546"/>
					<path style="fill:none;stroke:#000000;stroke-width:2;stroke-linecap:round;stroke-linejoin:round;stroke-miterlimit:10;" d="
						M324.087,242.291c-0.374,0.474-0.748,0.948-1.122,1.422"/>
					<path style="fill:none;stroke:#000000;stroke-width:2;stroke-linecap:round;stroke-linejoin:round;stroke-miterlimit:10;" d="
						M349.878,230.729c1.509-0.377,3.018-0.754,4.526-1.132"/>
					<path style="fill:none;stroke:#000000;stroke-width:2;stroke-linecap:round;stroke-linejoin:round;stroke-miterlimit:10;" d="
						M363.741,227.617c-0.566,1.132-1.132,2.263-1.697,3.395"/>
					<path style="fill:none;stroke:#000000;stroke-width:2;stroke-linecap:round;stroke-linejoin:round;stroke-miterlimit:10;" d="
						M233.887,204.136c1.132,0,2.263,0,3.395,0"/>
					<path style="fill:none;stroke:#000000;stroke-width:2;stroke-linecap:round;stroke-linejoin:round;stroke-miterlimit:10;" d="
						M216.347,203.004c-0.283,0.566-0.566,1.132-0.849,1.697"/>
					<path style="fill:none;stroke:#000000;stroke-width:2;stroke-linecap:round;stroke-linejoin:round;stroke-miterlimit:10;" d="
						M172.497,221.11c1.226-0.189,2.452-0.377,3.678-0.566"/>
					<path style="fill:none;stroke:#000000;stroke-width:2;stroke-linecap:round;stroke-linejoin:round;stroke-miterlimit:10;" d="
						M167.172,214.328c-0.097,0.66-0.193,1.32-0.29,1.979"/>
					<path style="fill:none;stroke:#000000;stroke-width:2;stroke-linecap:round;stroke-linejoin:round;stroke-miterlimit:10;" d="
						M174.477,225.637c0.849,0,1.698,0,2.546,0"/>
					<path style="fill:none;stroke:#000000;stroke-width:2;stroke-linecap:round;stroke-linejoin:round;stroke-miterlimit:10;" d="
						M142.226,224.505c-0.377,0.471-0.754,0.943-1.132,1.415"/>
				</g>
			</g>
			<g>
				<path style="fill:#FF4600;" d="M318.454,229.742c2.221-10.711-4.407-22.553-14.7-26.259
					c-10.292-3.706-22.018,2.099-27.135,11.767c-5.133-2.997-11.88-2.995-17.011,0.004c-5.131,2.999-8.444,8.877-8.352,14.82
					C272.472,233.989,297.405,234.467,318.454,229.742z"/>
				<path style="fill:none;stroke:#000000;stroke-width:2;stroke-linecap:round;stroke-linejoin:round;stroke-miterlimit:10;" d="
					M260.693,219.346c2.055,1.815,4.109,3.629,6.164,5.443"/>
				<path style="fill:none;stroke:#000000;stroke-width:2;stroke-linecap:round;stroke-linejoin:round;stroke-miterlimit:10;" d="
					M264.733,217.559c1.488,1.344,2.975,2.687,4.463,4.031"/>
				<path style="fill:none;stroke:#000000;stroke-width:2;stroke-linecap:round;stroke-linejoin:round;stroke-miterlimit:10;" d="
					M296.61,206.306c-1.222,4.905-2.444,9.809-3.666,14.714"/>
				<path style="fill:none;stroke:#000000;stroke-width:2;stroke-linecap:round;stroke-linejoin:round;stroke-miterlimit:10;" d="
					M302.705,209.458c-1.044,3.959-2.089,7.918-3.133,11.876"/>
			</g>
			<g>
				<path style="fill:#95BA29;" d="M317.462,235.198c-0.987-4.476-5.416-7.304-9.892-6.317c-4.476,0.987-7.304,5.416-6.317,9.892
					c0.987,4.476,5.416,7.304,9.892,6.316C315.622,244.103,318.45,239.674,317.462,235.198z M305.793,237.152
					c-0.557-2.525,1.038-5.023,3.563-5.58c2.525-0.557,5.023,1.038,5.58,3.563c0.557,2.525-1.038,5.023-3.563,5.58
					C308.848,241.272,306.35,239.676,305.793,237.152z"/>
				<path style="fill:#95BA29;" d="M330.092,235.291c2.997-2.282,3.576-6.562,1.294-9.559c-2.282-2.997-6.562-3.577-9.56-1.294
					c-2.997,2.282-3.576,6.562-1.294,9.559C322.815,236.994,327.095,237.573,330.092,235.291z M324.604,227.263
					c1.691-1.287,4.105-0.961,5.392,0.73c1.287,1.691,0.961,4.105-0.73,5.392c-1.691,1.287-4.105,0.961-5.392-0.73
					C322.587,230.964,322.914,228.55,324.604,227.263z"/>
			</g>
			<g>
				<path style="fill:#FFBE00;" d="M284.81,240.839c-0.569-3.025-3.906-5.224-6.91-4.553c-3.004,0.671-5.088,4.081-4.315,7.061
					C277.791,244.274,281.258,243.275,284.81,240.839z"/>
				<path style="fill:#FFBE00;" d="M271.738,242.468c0.102-2.12-1.38-4.216-3.414-4.824c-2.033-0.609-4.708-0.14-5.788,1.687
					c-1.973-3.728-6.515-5.901-10.656-5.099c-4.141,0.802-7.542,4.515-7.98,8.71C253.013,246.038,263.152,246.816,271.738,242.468z"
					/>
			</g>
			<g>
				<path style="fill:#BAD734;" d="M186.806,223.721c3.941,2.34,9.033,1.042,11.373-2.899c2.34-3.941,1.042-9.033-2.9-11.373
					c-3.941-2.34-9.033-1.042-11.373,2.9C181.567,216.29,182.865,221.382,186.806,223.721z M193.36,213.87
					c2.223,1.32,2.956,4.192,1.636,6.415c-1.32,2.223-4.192,2.956-6.415,1.636c-2.223-1.32-2.955-4.192-1.636-6.415
					C188.264,213.283,191.137,212.551,193.36,213.87z"/>
				<path style="fill:#BAD734;" d="M180.516,213.712c2.997-2.282,3.577-6.562,1.294-9.559c-2.282-2.997-6.562-3.577-9.559-1.294
					c-2.997,2.282-3.576,6.562-1.294,9.559C173.239,215.414,177.519,215.994,180.516,213.712z M175.029,205.683
					c1.691-1.287,4.105-0.961,5.392,0.73c1.287,1.691,0.961,4.105-0.73,5.392c-1.691,1.287-4.105,0.96-5.392-0.73
					S173.338,206.971,175.029,205.683z"/>
				<path style="fill:#BAD734;" d="M210.467,206.368c-4.584,0-8.299,3.716-8.299,8.299c0,4.584,3.715,8.299,8.299,8.299
					c4.583,0,8.299-3.716,8.299-8.299C218.766,210.084,215.051,206.368,210.467,206.368z M209.861,218.184
					c-2.585,0-4.681-2.096-4.681-4.681c0-2.586,2.096-4.681,4.681-4.681c2.585,0,4.681,2.096,4.681,4.681
					C214.542,216.088,212.446,218.184,209.861,218.184z"/>
			</g>
			<g>
				<path style="fill:#FFBE00;" d="M194.298,234.084c0.223-3.546-1.81-7.134-4.966-8.764c-3.157-1.63-7.26-1.211-10.021,1.023
					c-2.762,2.235-4.028,6.16-3.093,9.587C182.29,238.604,188.515,237.34,194.298,234.084z"/>
				<path style="fill:#FFBE00;" d="M211.644,230.426c-0.503-2.68-3.074-4.817-5.801-4.821c-2.727-0.004-5.304,2.126-5.815,4.804
					C203.307,232.191,208.226,231.923,211.644,230.426z"/>
				<path style="fill:#FFBE00;" d="M216.994,241.753c-0.398-3.682-3.339-6.948-6.959-7.727c-3.62-0.779-7.645,0.987-9.522,4.179
					C204.794,242.031,211.701,243.981,216.994,241.753z"/>
				<path style="fill:#FFBE00;" d="M231.234,211.571c0.604-3.277-2.276-6.736-5.607-6.735c-3.332,0-6.211,3.46-5.606,6.736
					C223.62,213.257,227.599,213.18,231.234,211.571z"/>
				<path style="fill:#FFBE00;" d="M251.382,221.912c0.038-2.775-2.48-5.327-5.255-5.326c-2.776,0-5.292,2.553-5.253,5.328
					C243.894,223.306,248.426,223.435,251.382,221.912z"/>
			</g>
			<g>
				<g>
					<path style="fill:#FFFFFF;" d="M237.12,226.564c3.725,0.532,4.818,5.497,1.643,7.516c-2.409,1.531-5.154,2.528-7.996,2.817
						c-6.387,0.65-13.021-2.297-16.82-7.473c-1.678-2.287-2.776-4.971-3.259-7.764c-0.658-3.804,3.938-6.25,6.824-3.687
						c2.611,2.319,5.633,4.191,8.847,5.484C229.681,224.794,233.404,226.033,237.12,226.564z"/>
					<path style="fill:none;stroke:#000000;stroke-width:2;stroke-linecap:round;stroke-linejoin:round;stroke-miterlimit:10;" d="
						M219.199,228.168c2.008,3.12,5.373,5.333,9.033,5.939"/>
				</g>
				<g>
					<path style="fill:#FFFFFF;" d="M242.278,204.098c2.114-2.435,6.197-0.915,6.174,2.31c-0.017,2.446-0.576,4.885-1.688,7.065
						c-2.5,4.9-7.704,8.307-13.195,8.636c-2.426,0.146-4.869-0.312-7.104-1.261c-3.044-1.293-2.67-5.739,0.517-6.626
						c2.883-0.802,5.635-2.108,8.059-3.82C237.547,208.632,240.169,206.527,242.278,204.098z"/>
					<path style="fill:none;stroke:#000000;stroke-width:2;stroke-linecap:round;stroke-linejoin:round;stroke-miterlimit:10;" d="
						M235.571,218.527c4.293-1.64,7.88-5.049,9.735-9.254"/>
				</g>
			</g>
			<g>
				<path style="fill:#FFBE00;" d="M337.251,238.746c-1.332-2.506-4.158-4.139-6.995-4.044c-2.836,0.096-5.546,1.916-6.706,4.506
					C328.898,240.524,332.189,240.916,337.251,238.746z"/>
				<path style="fill:#FFBE00;" d="M347.013,235.978c-0.195-2.232-2.199-4.163-4.437-4.274s-4.424,1.61-4.84,3.812
					C340.019,237.462,344.522,237.651,347.013,235.978z"/>
			</g>
			<g>
				<path style="fill:#FF4600;" d="M359.945,226.241c-1.468-4.488-6.139-7.708-10.856-7.483c-4.716,0.225-9.06,3.876-10.094,8.483
					C346.001,229.118,353.371,229.305,359.945,226.241z"/>
				<path style="fill:none;stroke:#000000;stroke-width:2;stroke-linecap:round;stroke-linejoin:round;stroke-miterlimit:10;" d="
					M346.831,220.836c-0.195,1.414-0.39,2.827-0.584,4.241"/>
				<path style="fill:none;stroke:#000000;stroke-width:2;stroke-linecap:round;stroke-linejoin:round;stroke-miterlimit:10;" d="
					M350.444,221.11c0,1.32,0,2.641,0,3.961"/>
			</g>
			<g>
				<path style="fill:#FF4600;" d="M170.772,230.514c-0.606-6.516-6.605-12.082-13.148-12.198s-12.737,5.231-13.575,11.722
					C153.459,233.257,161.946,235.098,170.772,230.514z"/>
				<path style="fill:none;stroke:#000000;stroke-width:2;stroke-linecap:round;stroke-linejoin:round;stroke-miterlimit:10;" d="
					M153.283,221.383c0.852,2.168,1.703,4.335,2.555,6.503"/>
				<path style="fill:none;stroke:#000000;stroke-width:2;stroke-linecap:round;stroke-linejoin:round;stroke-miterlimit:10;" d="
					M157.767,219.989c1.214,2.176,2.427,4.352,3.641,6.528"/>
			</g>
			<g>
				<path style="fill:#FF4600;" d="M197.742,246.945c-0.486-3.31-2.885-6.269-6.023-7.428c-3.138-1.159-6.885-0.47-9.405,1.729
					c-0.817-3.893-4.204-7.112-8.134-7.73c-3.93-0.618-8.141,1.406-10.114,4.86C172.142,248.424,185.817,251.842,197.742,246.945z"
					/>
				<path style="fill:none;stroke:#000000;stroke-width:2;stroke-linecap:round;stroke-linejoin:round;stroke-miterlimit:10;" d="
					M172.214,234.972c0,1.603,0,3.206,0,4.809"/>
				<path style="fill:none;stroke:#000000;stroke-width:2;stroke-linecap:round;stroke-linejoin:round;stroke-miterlimit:10;" d="
					M175.107,236.383c0.089,1.415,0.177,2.83,0.266,4.245"/>
				<path style="fill:none;stroke:#000000;stroke-width:2;stroke-linecap:round;stroke-linejoin:round;stroke-miterlimit:10;" d="
					M186.359,240.63c0.283,1.415,0.566,2.829,0.849,4.244"/>
				<path style="fill:none;stroke:#000000;stroke-width:2;stroke-linecap:round;stroke-linejoin:round;stroke-miterlimit:10;" d="
					M189.94,240.364c0.194,1.131,0.389,2.261,0.583,3.392"/>
			</g>
		</g>
		<g>
			<path style="fill:#BE463C;" d="M253.054,266.727c-36.275,0-70.446-4.977-96.218-14.014
				c-27.312-9.578-42.353-22.941-42.353-37.627c0-14.687,15.041-28.05,42.353-37.627c25.772-9.037,59.943-14.014,96.218-14.014
				c36.274,0,70.446,4.977,96.218,14.014c27.311,9.578,42.353,22.941,42.353,37.627c0,14.687-15.042,28.05-42.353,37.627
				C323.5,261.75,289.328,266.727,253.054,266.727z M253.054,175.742c-33.903,0-65.713,4.46-89.569,12.558
				c-22.05,7.485-34.697,17.248-34.697,26.785c0,9.537,12.647,19.3,34.697,26.785c23.856,8.098,55.666,12.558,89.569,12.558
				s65.713-4.46,89.569-12.558c22.05-7.485,34.697-17.248,34.697-26.785c0-9.537-12.647-19.3-34.697-26.785
				C318.767,180.202,286.957,175.742,253.054,175.742z"/>
		</g>
		<g>
			<g>
				<path style="fill:#952116;" d="M397.5,240.63c0,5.182-1.801,10.205-5.29,14.97c-1.51,2.061-2.053,4.678-1.488,7.17v0
					c0.719,3.172,4.026,5.026,7.107,3.983l43.362-14.663c2.856-0.966,4.671-3.77,4.383-6.771l0,0
					c-0.331-3.445-1.166-6.824-2.48-10.026l-8.398-20.465c-1.75-4.263-6.564-6.372-10.884-4.768l-30.475,11.316L397.5,240.63z"/>
				<path style="fill:none;stroke:#000000;stroke-width:2;stroke-linecap:round;stroke-linejoin:round;stroke-miterlimit:10;" d="
					M399.453,257.505c12.982-4.708,25.964-9.415,38.947-14.123c2.042-0.74,3.438-3.691,3.475-5.863"/>
			</g>
			<g>
				<path style="fill:#952116;" d="M108.627,240.63c0,5.182,1.801,10.205,5.291,14.97c1.51,2.061,2.053,4.678,1.488,7.17v0
					c-0.719,3.172-4.025,5.026-7.107,3.983L64.936,252.09c-2.856-0.966-4.671-3.77-4.383-6.771l0,0
					c0.331-3.445,1.166-6.824,2.48-10.026l8.398-20.465c1.749-4.263,6.564-6.372,10.884-4.768l30.377,11.279L108.627,240.63z"/>
				<path style="fill:none;stroke:#000000;stroke-width:2;stroke-linecap:round;stroke-linejoin:round;stroke-miterlimit:10;" d="
					M113.874,259.755c-16.024-5.772-32.048-11.544-48.073-17.316c-2.314-0.833-2.42-4.489-1.907-6.894"/>
			</g>
		</g>
	</g>
	<g>
		<g>
			<path style="fill:#FFFFFF;" d="M437.848,164.127c-2.984-2.354-7.397-0.197-7.396,3.604c0,3.946-0.838,7.894-2.486,11.48
				c-1.59,3.46-3.926,6.568-6.778,9.09c-2.889,2.555-1.598,7.324,2.203,7.983c4.31,0.747,8.819,0.097,12.507-2.23
				c6.362-4.014,9.836-12.141,8.34-19.514C443.376,170.291,441.069,166.668,437.848,164.127z"/>
			<path style="fill:none;stroke:#000000;stroke-width:2;stroke-linecap:round;stroke-linejoin:round;stroke-miterlimit:10;" d="
				M424.276,193.72c6.766,0.864,13.853-3.349,16.327-9.705"/>
		</g>
		<g>
			<path style="fill:#FFFFFF;" d="M413.145,175.992c3.779,0.407,6.37-3.765,4.349-6.984c-2.098-3.342-3.487-7.131-3.997-11.045
				c-0.493-3.776-0.166-7.65,0.909-11.303c1.089-3.7-2.541-7.053-6.109-5.59c-4.047,1.659-7.521,4.606-9.408,8.537
				c-3.255,6.783-1.876,15.512,3.31,20.962C405.186,173.71,409.066,175.552,413.145,175.992z"/>
			<path style="fill:none;stroke:#000000;stroke-width:2;stroke-linecap:round;stroke-linejoin:round;stroke-miterlimit:10;" d="
				M411.441,173.739c1.002,0.429,2.23,0.27,3.09-0.399c0.86-0.669,1.315-1.821,1.146-2.897"/>
		</g>
		<g>
			<path style="fill:#FFFFFF;" d="M73.485,388.066c-1.427,3.522,1.877,7.157,5.526,6.095c3.789-1.102,7.813-1.4,11.717-0.819
				c3.767,0.56,7.403,1.936,10.622,3.97c3.26,2.06,7.479-0.512,7.05-4.345c-0.487-4.347-2.369-8.495-5.634-11.387
				c-5.632-4.988-14.405-6.053-21.067-2.558C77.86,381.037,75.025,384.264,73.485,388.066z"/>
			<path style="fill:none;stroke:#000000;stroke-width:2;stroke-linecap:round;stroke-linejoin:round;stroke-miterlimit:10;" d="
				M89.615,390.658c4.662-0.461,9.488,1.059,13.044,4.11"/>
		</g>
		<g>
			<path style="fill:#FFFFFF;" d="M71.487,325.75c-3.648,1.067-4.449,5.913-1.352,8.116c3.215,2.287,5.946,5.259,7.913,8.681
				c1.898,3.302,3.075,7.007,3.477,10.793c0.407,3.835,5.042,5.548,7.781,2.833c3.107-3.079,5.192-7.129,5.434-11.483
				c0.418-7.512-4.19-15.053-11.065-18.109C79.714,324.819,75.425,324.599,71.487,325.75z"/>
			<path style="fill:none;stroke:#000000;stroke-width:2;stroke-linecap:round;stroke-linejoin:round;stroke-miterlimit:10;" d="
				M84.118,352.664c0.034,1.017,0.882,1.946,1.892,2.072c1.01,0.126,2.06-0.567,2.342-1.545"/>
		</g>
	</g>
	<g>
		<path style="fill:#FF9A7D;" d="M436.074,68.046c-18.291-4.302-36.703-7.919-55.426-9.508
			c-10.217,10.624-20.914,21.426-31.131,32.05c1.269,12.83,2.538,25.66,3.807,38.49c2.774,1.045,6.386-0.098,8.496-2.18
			c2.11-2.082,3.366-4.853,4.649-7.525c1.283-2.673,2.702-5.396,5.019-7.246c10.939-0.374,20.919-1.106,31.858-1.479
			c5.327,5.615,9.805,11.248,15.132,16.863c14.606-5.218,32.732-1.607,47.338-6.825L436.074,68.046z"/>
		<g>
			<path style="fill:#FF9A7D;" d="M430.256,125.674c2.039-4.974,3.947-9.855,5.986-14.829c-1.803-1.34-4.244-1.557-6.063-0.239
				c-1.848,1.34-3.695,2.679-5.543,4.019c1.152-2.288,2.132-4.477,3.284-6.765c-1.674-2.914-5.738-4.378-8.741-2.871
				c-2.816,1.413-5.632,2.826-8.447,4.239c1.612-2.147,3.158-4.897,4.77-7.044c-1.585-3.484-5.558-4.643-9.332-4
				c-10.804,1.841-21.47,4.493-31.879,7.927c-1.104,3.737-0.686,8.527,2.052,11.3c2.738,2.772,6.696,4.155,10.592,4.202
				c3.896,0.047,7.732-1.154,11.187-2.956c-1.795,2.007-1.655,5.243-0.006,7.371c1.65,2.129,4.41,3.172,7.1,3.295
				c2.69,0.123,5.348-0.567,7.923-1.356c0.532,2.451,3.587,4.213,6.059,4.641c2.471,0.429,5.03-0.345,7.182-1.633
				C428.533,129.686,429.305,127.995,430.256,125.674z"/>
			<path style="fill:none;stroke:#000000;stroke-width:2;stroke-linecap:round;stroke-linejoin:round;stroke-miterlimit:10;" d="
				M387.217,102.217c5.877-1.165,11.754-2.33,17.632-3.494c1.99-0.394,4.043-0.789,6.032-0.394c1.99,0.396,3.925,1.785,4.325,3.774
				c-4.724,6.962-11.101,13.028-18.213,17.522"/>
			<path style="fill:none;stroke:#000000;stroke-width:2;stroke-linecap:round;stroke-linejoin:round;stroke-miterlimit:10;" d="
				M410.188,108.87c2.371-0.866,4.743-1.731,7.114-2.597c1.807-0.659,3.671-1.329,5.593-1.246c1.921,0.083,3.935,1.107,4.592,2.914
				c-3.748,7.554-8.983,14.734-15.241,20.386"/>
			<path style="fill:none;stroke:#000000;stroke-width:2;stroke-linecap:round;stroke-linejoin:round;stroke-miterlimit:10;" d="
				M424.233,114.284c1.613-1.035,3.225-2.069,4.838-3.104c1.179-0.756,2.404-1.531,3.789-1.739c1.385-0.208,2.983,0.31,3.6,1.567
				c-2.209,4.943-4.182,9.884-6.391,14.827"/>
			<path style="fill:none;stroke:#000000;stroke-width:2;stroke-linecap:round;stroke-linejoin:round;stroke-miterlimit:10;" d="
				M394.393,99.967c-0.429-2.056-1.678-3.93-3.412-5.117c-1.733-1.187-3.932-1.673-6.004-1.329"/>
		</g>
		<g>
			<g>
				<path style="fill:#E6E9F1;" d="M241.244,212.866c0,30.831,25.588,55.825,57.153,55.825s57.153-24.994,57.153-55.825H241.244z"/>
				<path style="fill:none;stroke:#000000;stroke-width:2;stroke-linecap:round;stroke-linejoin:round;stroke-miterlimit:10;" d="
					M291.974,263.935c20.132,2.891,41.535-7.081,52.273-24.354"/>
			</g>
			<g>
				<path style="fill:#E6E9F1;" d="M440.151,53.429l-1.123-8.19c-1.833-13.368-12.5-23.549-25.94-24.757
					c-13.726-1.23-26.463,7.497-30.252,20.763l-39.477,138.227c-2.718,9.516-12.054,15.609-21.842,14.144
					c-7.317-1.095-15.231-1.65-23.12-1.65c-28.401,0-57.153,7.179-57.153,20.899s28.752,20.9,57.153,20.9
					c28.402,0,57.154-7.179,57.154-20.9c0-0.796-0.098-1.57-0.287-2.322c-1.914-7.593-1.316-15.605,0.834-23.135L396.71,45.208
					c1.889-6.615,8.244-10.965,15.087-10.354c6.703,0.602,12.022,5.679,12.937,12.347l1.156,8.432
					c0.583,4.252,4.76,7.129,9.046,5.981C438.481,60.664,440.65,57.065,440.151,53.429z"/>
				<path style="fill:none;stroke:#FFFFFF;stroke-width:2;stroke-linecap:round;stroke-linejoin:round;stroke-miterlimit:10;" d="
					M388.098,38.694c3.936-8.78,13.555-14.673,23.165-14.192"/>
				<path style="fill:none;stroke:#000000;stroke-width:2;stroke-linecap:round;stroke-linejoin:round;stroke-miterlimit:10;" d="
					M345.844,204.66c1.581,1.699,2.43,4.057,2.295,6.375c-0.135,2.317-1.252,4.561-3.02,6.065"/>
			</g>
			<g>
				<path style="fill:#FFA000;" d="M347.131,212.87c0,3.499-11.711,9.33-31.706,11.567c-5.146,0.577-10.845,0.914-17.025,0.914
					c-7.551,0-14.38-0.505-20.356-1.335c-17.975-2.477-28.387-7.839-28.387-11.146c0-4.401,18.504-12.492,48.743-12.492
					c5.639,0,10.869,0.277,15.654,0.77c1.623,0.168,3.186,0.349,4.701,0.565c4.966,0.685,9.354,1.587,13.106,2.609
					c1.779,0.493,3.402,0.998,4.882,1.515C343.476,208.23,347.131,210.911,347.131,212.87z"/>
				<g>
					<path style="fill:#FF4600;" d="M337.328,211.208c-2.348-7.178-9.82-12.329-17.364-11.969
						c-7.544,0.36-14.492,6.199-16.145,13.568C315.025,215.81,326.813,216.109,337.328,211.208z"/>
					<path style="fill:none;stroke:#000000;stroke-width:2;stroke-linecap:round;stroke-linejoin:round;stroke-miterlimit:10;" d="
						M317.061,201.479c0,2.169,0,4.338,0,6.507"/>
					<path style="fill:none;stroke:#000000;stroke-width:2;stroke-linecap:round;stroke-linejoin:round;stroke-miterlimit:10;" d="
						M321.283,202.329c0.092,1.509,0.185,3.018,0.277,4.527"/>
					<path style="fill:none;stroke:#000000;stroke-width:2;stroke-linecap:round;stroke-linejoin:round;stroke-miterlimit:10;" d="
						M324.134,201.762c0.189,1.415,0.377,2.829,0.566,4.243"/>
				</g>
				<g>
					<path style="fill:#FFBE00;" d="M307.979,218.503c-1.782-3.246-5.752-5.131-9.394-4.46s-6.679,3.849-7.185,7.517
						C296.823,223.448,303.948,222.594,307.979,218.503z"/>
					<path style="fill:#FFBE00;" d="M268.166,218.064c-0.354-3.686-3.257-6.986-6.868-7.808c-3.611-0.822-7.656,0.897-9.571,4.067
						C255.964,218.199,262.848,220.23,268.166,218.064z"/>
					<path style="fill:#FFBE00;" d="M291.92,216.914c-1.332-2.506-4.158-4.139-6.995-4.044c-2.836,0.096-5.546,1.916-6.706,4.506
						C283.567,218.692,286.857,219.084,291.92,216.914z"/>
					<path style="fill:#FFBE00;" d="M287.914,209.093c-0.195-2.232-2.199-4.163-4.437-4.274c-2.238-0.112-4.424,1.61-4.84,3.812
						C280.92,210.576,285.423,210.766,287.914,209.093z"/>
					<path style="fill:#FFBE00;" d="M278.565,214.593c0.933-2.933-0.963-6.451-3.927-7.284c-2.964-0.833-6.415,1.182-7.146,4.173
						C270.756,214.292,274.282,215.055,278.565,214.593z"/>
				</g>
				<g>
					<path style="fill:#BAD734;" d="M300.202,209.376c2.997-2.282,3.577-6.562,1.294-9.559c-2.282-2.997-6.562-3.577-9.56-1.294
						c-2.997,2.282-3.576,6.562-1.294,9.559C292.925,211.079,297.205,211.658,300.202,209.376z M294.714,201.348
						c1.691-1.287,4.105-0.961,5.392,0.73c1.287,1.691,0.961,4.105-0.73,5.392c-1.691,1.288-4.105,0.961-5.392-0.73
						C292.697,205.049,293.024,202.635,294.714,201.348z"/>
					<path style="fill:#BAD734;" d="M322.937,216.676c1.202,3.57,5.071,5.49,8.641,4.288c3.57-1.202,5.49-5.071,4.289-8.641
						c-1.202-3.57-5.071-5.49-8.641-4.288C323.655,209.237,321.735,213.106,322.937,216.676z M332.301,214.05
						c0.678,2.014-0.405,4.196-2.419,4.874c-2.014,0.678-4.196-0.405-4.874-2.419c-0.678-2.014,0.405-4.196,2.419-4.874
						C329.44,210.953,331.623,212.036,332.301,214.05z"/>
					<path style="fill:#BAD734;" d="M316.439,215.714c-3.757,0.285-6.571,3.561-6.286,7.317c0.285,3.757,3.561,6.571,7.318,6.286
						c3.756-0.285,6.57-3.561,6.286-7.318C323.471,218.243,320.195,215.429,316.439,215.714z M316.676,225.436
						c-2.119,0.161-3.967-1.427-4.128-3.546s1.427-3.967,3.546-4.128c2.119-0.161,3.967,1.427,4.128,3.546
						S318.795,225.275,316.676,225.436z"/>
				</g>
			</g>
		</g>
		<g>
			<path style="fill:#FF9A7D;" d="M453.999,44.087c-13.579-0.398-26.378-1.771-39.915-0.636
				c-20.087,1.684-40.175,3.367-60.262,5.051c-0.782,4.713,1.541,9.987,5.987,11.734c16.378,6.435,34.263,11.33,51.068,16.55
				c1.603,12.069,37.74,44.306,49.914,44.468c13.069,0.173,26.409,2.381,39.21,5.769V45.701
				C484.669,45.099,469.336,44.537,453.999,44.087z"/>
			<path style="fill:none;stroke:#000000;stroke-width:2;stroke-linecap:round;stroke-linejoin:round;stroke-miterlimit:10;" d="
				M374.067,64.551c12.1,4.015,24.2,8.029,36.3,12.044c1.914,13.237,9.313,25.027,19.94,33.147"/>
		</g>
	</g>
</g>
</svg>
