<svg width="900" height="300" viewBox="0 0 900 300" fill="none" xmlns="http://www.w3.org/2000/svg">
<path d="M524.658 56.024C525.083 56.0202 525.507 56.0163 525.944 56.0124C527.346 56.0008 528.748 55.994 530.151 55.9881C530.632 55.9857 531.113 55.9833 531.609 55.9809C534.158 55.9687 536.707 55.9603 539.257 55.9548C541.876 55.9483 544.495 55.9282 547.114 55.9049C549.139 55.8895 551.165 55.8846 553.191 55.8825C554.155 55.8797 555.12 55.8729 556.084 55.862C563.183 55.7865 569.629 56.1877 575.016 61.3583C576.554 63.122 577.742 65.0214 578.947 67.0237C580.485 69.5661 582.19 71.995 583.877 74.4403C586.938 78.8909 589.957 83.366 592.942 87.8673C594.202 89.7665 595.468 91.6622 596.733 93.5585C597.22 94.2902 597.708 95.022 598.195 95.7537C598.982 96.9346 599.771 98.1142 600.562 99.2926C602.418 102.06 604.215 104.858 605.962 107.696C609.904 102.873 613.331 97.6385 616.627 92.359C619.307 88.1498 622.141 84.0436 624.971 79.934C627.047 76.9116 629.106 73.8876 631.05 70.7778C635.221 64.1891 638.719 59.0213 646.408 56.5096C650.288 55.6612 654.333 55.8774 658.288 55.8943C659.27 55.8931 660.253 55.8914 661.235 55.8892C663.286 55.8866 665.336 55.8903 667.387 55.8986C670.009 55.9086 672.632 55.9028 675.254 55.8923C677.28 55.8859 679.305 55.888 681.331 55.8925C682.298 55.8937 683.265 55.8923 684.232 55.8881C685.583 55.8837 686.935 55.8905 688.286 55.9003C689.054 55.9017 689.821 55.9031 690.612 55.9045C694.356 56.3067 696.721 57.9983 699.136 60.8158C706.277 74.7399 701.588 101.666 701.598 116.834C701.6 118.817 701.602 120.8 701.604 122.783C701.611 129.388 701.617 135.993 701.619 142.598C701.619 143.017 701.62 143.435 701.62 143.867C701.62 144.286 701.62 144.706 701.62 145.138C701.62 145.987 701.621 146.837 701.621 147.687C701.621 148.108 701.621 148.529 701.621 148.963C701.624 155.827 701.634 162.69 701.647 169.553C701.661 176.638 701.669 183.722 701.669 190.807C701.67 194.77 701.673 198.733 701.684 202.696C701.694 206.411 701.695 210.126 701.69 213.842C701.689 215.202 701.692 216.562 701.698 217.922C701.705 219.782 701.702 221.642 701.695 223.502C701.703 224.304 701.703 224.304 701.71 225.121C701.677 229.439 701.051 233.607 698.477 237.165C693.651 240.627 688.201 240.393 682.492 240.365C681.621 240.366 680.749 240.368 679.877 240.37C678.057 240.373 676.237 240.369 674.417 240.361C672.1 240.351 669.782 240.357 667.465 240.367C665.666 240.374 663.868 240.372 662.07 240.367C661.216 240.366 660.362 240.367 659.508 240.371C648.294 240.414 648.294 240.414 644.85 237.585C642.454 234.894 641.578 232.158 641.477 228.624C641.456 227.955 641.435 227.286 641.413 226.596C641.397 225.859 641.38 225.122 641.362 224.362C641.341 223.566 641.319 222.771 641.297 221.975C641.004 210.765 640.92 199.55 640.81 188.338C640.78 185.312 640.748 182.286 640.716 179.26C640.654 173.376 640.594 167.492 640.536 161.608C640.338 162.008 640.14 162.408 639.936 162.82C639.675 163.346 639.413 163.871 639.144 164.413C638.757 165.194 638.757 165.194 638.361 165.991C637.441 167.79 636.415 169.497 635.335 171.204C633.867 173.552 632.429 175.907 631.05 178.309C620.684 196.171 620.684 196.171 615.924 202.042C615.537 202.042 615.151 202.042 614.752 202.042C614.752 202.429 614.752 202.815 614.752 203.214C612.19 205.449 610.13 206.642 606.706 206.846C602.91 206.513 600.204 204.223 597.758 201.456C597.496 201.182 597.234 200.907 596.964 200.625C594.217 197.643 592.229 194.211 590.159 190.742C589.195 189.138 588.2 187.552 587.21 185.963C584.982 182.343 582.866 178.666 580.774 174.967C579.751 173.16 578.719 171.358 577.688 169.555C576.174 166.906 574.66 164.257 573.146 161.608C573.145 161.963 573.143 162.319 573.142 162.685C573.107 171.348 573.063 180.01 573.008 188.672C572.982 192.861 572.959 197.05 572.943 201.239C572.93 204.891 572.91 208.543 572.883 212.195C572.869 214.128 572.859 216.061 572.855 217.994C572.849 220.154 572.832 222.314 572.814 224.475C572.815 225.431 572.815 225.431 572.816 226.406C572.763 230.705 572.221 233.551 569.594 237.055C564.795 240.731 558.82 240.394 553.037 240.365C552.177 240.366 551.318 240.368 550.459 240.37C548.668 240.373 546.877 240.369 545.085 240.361C542.802 240.351 540.52 240.357 538.237 240.367C536.466 240.374 534.695 240.372 532.924 240.367C532.082 240.366 531.241 240.367 530.4 240.371C525.031 240.392 519.993 240.342 515.498 237.092C511.848 233.181 511.899 228.573 511.807 223.491C511.787 222.709 511.768 221.927 511.748 221.144C511.445 207.835 511.508 194.514 511.499 181.201C511.497 178.786 511.495 176.371 511.492 173.956C511.485 167.24 511.479 160.524 511.477 153.808C511.477 153.382 511.477 152.957 511.477 152.518C511.476 152.092 511.476 151.665 511.476 151.226C511.476 150.362 511.476 149.499 511.475 148.635C511.475 148.207 511.475 147.778 511.475 147.337C511.473 140.355 511.462 133.374 511.449 126.393C511.435 119.187 511.428 111.982 511.427 104.777C511.426 100.746 511.423 96.7149 511.412 92.6839C511.402 88.9065 511.401 85.1292 511.407 81.3518C511.407 79.9675 511.404 78.5832 511.399 77.1989C511.391 75.3089 511.395 73.4192 511.401 71.5292C511.396 70.983 511.391 70.4367 511.386 69.8739C511.416 65.9883 511.911 62.5668 514.489 59.4812C514.882 59.1602 515.276 58.8391 515.682 58.5084C516.074 58.1768 516.466 57.8451 516.87 57.5035C519.311 55.8866 521.787 56.0456 524.658 56.024Z" fill="#FF621F"/>
<path d="M200.726 55.9003C201.149 55.8972 201.573 55.8941 202.009 55.8909C203.4 55.8832 204.791 55.8883 206.182 55.8942C207.154 55.8931 208.126 55.8914 209.098 55.8891C211.131 55.8866 213.164 55.8903 215.198 55.8985C217.799 55.9086 220.399 55.9028 223 55.8923C225.006 55.8859 227.012 55.8879 229.018 55.8925C229.977 55.8937 230.936 55.8922 231.894 55.8881C233.236 55.8836 234.578 55.8905 235.92 55.9003C236.682 55.9017 237.445 55.9031 238.23 55.9045C241.991 56.3105 244.291 58.0217 246.744 60.8157C247.917 62.7186 248.089 64.2453 248.159 66.4651C248.181 67.1624 248.204 67.8597 248.227 68.5781C248.246 69.3601 248.264 70.1422 248.282 70.9242C248.299 71.5229 248.299 71.5229 248.315 72.1337C248.708 86.5202 248.548 100.924 248.502 115.314C255.657 115.314 262.812 115.314 270.184 115.314C270.164 111.822 270.143 108.329 270.122 104.731C270.113 102.512 270.105 100.293 270.098 98.0737C270.088 94.5552 270.075 91.0368 270.051 87.5184C270.032 84.6801 270.022 81.8419 270.017 79.0035C270.014 77.9235 270.008 76.8434 269.998 75.7634C269.985 74.2445 269.984 72.726 269.984 71.2071C269.978 70.7658 269.972 70.3244 269.965 69.8697C269.987 66.1213 270.663 62.3838 273.077 59.424C273.476 59.1097 273.875 58.7955 274.286 58.4717C274.685 58.1454 275.084 57.8191 275.495 57.4829C277.791 55.9273 279.867 56.0474 282.566 56.0333C283.201 56.0289 283.201 56.0289 283.849 56.0245C285.249 56.0159 286.65 56.0119 288.05 56.0087C289.025 56.0053 289.999 56.002 290.973 55.9986C293.017 55.9924 295.061 55.989 297.105 55.987C299.72 55.9837 302.334 55.9697 304.949 55.953C306.963 55.942 308.976 55.939 310.989 55.9381C311.953 55.9363 312.917 55.9317 313.881 55.9239C315.231 55.9139 316.582 55.9151 317.932 55.9189C318.7 55.9167 319.468 55.9146 320.258 55.9124C323.983 56.298 326.411 57.9809 328.784 60.8157C330.346 64.2233 330.223 67.8018 330.315 71.4816C330.326 71.8612 330.336 72.2408 330.347 72.6319C330.738 86.581 330.65 100.544 330.659 114.497C330.661 116.962 330.663 119.428 330.666 121.893C330.673 128.747 330.679 135.602 330.681 142.456C330.681 143.108 330.681 143.108 330.682 143.773C330.682 144.208 330.682 144.643 330.682 145.092C330.682 145.973 330.682 146.855 330.683 147.737C330.683 148.393 330.683 148.393 330.683 149.062C330.685 156.189 330.696 163.317 330.709 170.445C330.723 177.799 330.731 185.153 330.731 192.507C330.732 196.623 330.735 200.738 330.746 204.853C330.756 208.709 330.757 212.564 330.752 216.42C330.751 217.834 330.754 219.248 330.759 220.662C330.767 222.59 330.763 224.519 330.757 226.447C330.764 227.287 330.764 227.287 330.772 228.143C330.747 231.416 330.368 233.729 328.784 236.616C323.883 240.833 317.674 240.315 311.591 240.308C310.717 240.31 309.843 240.313 308.969 240.316C307.143 240.32 305.317 240.32 303.491 240.317C301.164 240.313 298.836 240.323 296.509 240.337C294.705 240.346 292.902 240.346 291.099 240.344C290.241 240.344 289.384 240.347 288.526 240.353C277.847 240.418 277.847 240.418 274.364 237.437C270.265 233.288 270.543 227.557 270.404 222.076C270.381 221.321 270.359 220.565 270.336 219.788C269.997 207.042 270.139 194.281 270.184 181.532C263.029 181.532 255.874 181.532 248.502 181.532C248.511 183.034 248.52 184.536 248.53 186.084C248.559 191.056 248.578 196.029 248.593 201.001C248.602 204.015 248.615 207.029 248.635 210.043C248.654 212.953 248.664 215.863 248.669 218.774C248.672 219.882 248.678 220.991 248.688 222.099C248.701 223.656 248.702 225.212 248.702 226.769C248.708 227.224 248.714 227.678 248.721 228.146C248.703 231.332 248.074 233.709 246.744 236.616C241.927 240.873 235.583 240.315 229.551 240.308C228.677 240.31 227.803 240.313 226.929 240.316C225.103 240.32 223.277 240.32 221.451 240.317C219.124 240.313 216.796 240.323 214.469 240.337C212.665 240.346 210.862 240.346 209.059 240.344C208.201 240.344 207.344 240.347 206.486 240.353C195.764 240.419 195.764 240.419 192.324 237.42C188.379 233.344 188.506 228.295 188.371 222.925C188.36 222.545 188.35 222.166 188.339 221.775C187.956 208.146 188.036 194.504 188.027 180.871C188.025 178.477 188.023 176.083 188.02 173.689C188.013 167.029 188.007 160.37 188.005 153.711C188.005 153.289 188.004 152.867 188.004 152.432C188.004 152.009 188.004 151.586 188.004 151.151C188.004 150.294 188.003 149.438 188.003 148.582C188.003 148.157 188.003 147.732 188.003 147.295C188 140.374 187.99 133.454 187.977 126.534C187.963 119.39 187.955 112.246 187.955 105.103C187.954 101.107 187.951 97.1108 187.94 93.1148C187.931 89.3696 187.929 85.6246 187.934 81.8794C187.935 80.5076 187.932 79.1359 187.927 77.7641C187.919 75.8897 187.923 74.0156 187.929 72.1412C187.924 71.6012 187.919 71.0612 187.914 70.5048C187.946 66.2812 188.559 62.4853 191.257 59.131C194.359 56.6786 196.777 55.9075 200.726 55.9003Z" fill="#FF621F"/>
<path d="M420.163 55.9812C420.569 55.9808 420.974 55.9804 421.392 55.98C431.08 55.995 439.787 57.5667 448.914 60.8157C449.306 60.9513 449.699 61.0869 450.103 61.2266C460.256 64.7981 469.481 70.7401 477.042 78.3957C479.005 80.3776 479.005 80.3776 481.036 82.2871C489.966 90.5174 497.04 102.994 499.896 114.728C500.2 115.84 500.2 115.84 500.51 116.976C502.812 125.677 503.56 134.557 503.431 143.539C503.397 145.946 503.48 148.297 503.705 150.693C505.335 168.193 501.179 186.969 491.106 201.456C490.719 201.456 490.333 201.456 489.934 201.456C489.799 200.933 489.664 200.41 489.524 199.872C489.333 199.186 489.142 198.5 488.945 197.793C488.762 197.113 488.578 196.433 488.389 195.733C487.319 193.195 485.889 192.139 483.493 190.88C478.92 189.173 475.582 189.613 471.182 191.494C470.206 191.886 469.229 192.277 468.252 192.666C468.032 192.305 467.812 191.945 467.586 191.574C465.361 187.854 465.361 187.854 461.806 185.634C456.953 184.738 452.983 184.737 448.731 187.465C445.596 190.818 445.111 194.653 444.812 199.112C443.026 199.641 441.505 199.728 439.648 199.661C436.998 199.641 434.961 199.847 432.506 200.87C431.385 202.38 431.334 203.072 431.334 204.972C430.379 205.78 429.402 206.561 428.404 207.316C427.011 210.102 427.596 213.657 428.514 216.509C429.7 218.677 431.017 220.58 432.506 222.552C431.853 223.005 431.853 223.005 431.188 223.467C427.732 226.53 426.927 229.406 426.655 233.88C426.644 235.844 426.847 237.622 427.232 239.546C420.389 241.13 412.998 240.067 406.136 238.96C405.402 238.841 405.402 238.841 404.652 238.72C384.423 235.253 365.66 222.679 353.579 206.107C352.927 205.146 352.28 204.182 351.638 203.214C351.183 202.619 350.727 202.025 350.258 201.412C348.219 198.566 346.851 195.405 345.412 192.226C344.993 191.329 344.993 191.329 344.565 190.413C342.086 184.988 340.545 179.527 339.552 173.657C339.479 173.229 339.406 172.8 339.33 172.358C338.343 166.393 338.126 160.565 338.171 154.53C338.184 152.057 338.138 149.64 337.867 147.177C337.046 139.466 337.488 131.738 338.746 124.104C338.825 123.617 338.904 123.129 338.985 122.628C341.651 107.072 349.273 93.0301 360.428 81.9117C360.949 81.2838 361.463 80.6497 361.966 80.0072C365.918 75.346 371.194 71.7993 376.25 68.4337C376.78 68.0605 377.311 67.6874 377.857 67.3029C390.18 59.0767 405.577 55.994 420.163 55.9812ZM403.792 141.684C402.164 143.703 400.625 145.7 399.69 148.13C400.917 152.893 404.673 156.379 408.659 158.984C414.026 161.925 420.236 162.483 426.184 161.203C432.561 159.283 437.215 155.605 440.71 149.888C441.3 147.904 441.552 146.901 440.641 145.019C435.822 139.183 430.516 135.091 422.837 134.139C415.441 133.711 409.067 136.569 403.792 141.684Z" fill="#FF621F"/>
<path d="M178.5 73.0922C181.381 75.5112 183.268 77.3439 183.712 81.2161C183.599 83.9451 182.657 86.1261 181.112 88.358C179.5 89.823 179.5 89.823 178.182 90.702C178.507 90.9709 178.832 91.2398 179.166 91.5169C179.803 92.0562 179.803 92.0562 180.453 92.6065C180.874 92.96 181.296 93.3135 181.73 93.6778C183.595 95.5201 184.216 97.1073 184.262 99.7117C184.278 100.139 184.295 100.567 184.312 101.007C183.662 104.414 180.861 106.954 178.494 109.34C178.181 109.66 177.868 109.98 177.546 110.309C176.519 111.356 175.488 112.398 174.455 113.439C174.101 113.797 173.747 114.155 173.382 114.524C171.511 116.417 169.636 118.306 167.758 120.192C165.823 122.136 163.901 124.093 161.982 126.052C160.498 127.562 159.006 129.062 157.511 130.56C156.798 131.277 156.089 131.998 155.383 132.722C154.395 133.735 153.394 134.734 152.389 135.731C152.103 136.03 151.817 136.329 151.522 136.638C149.149 138.948 147.389 139.25 144.194 139.34C142.722 138.669 142.722 138.669 141.447 137.692C136.01 134.117 129.354 134.161 123.098 135.238C117.685 136.615 112.989 139.98 109.583 144.394C108.059 146.984 108.059 146.984 107.862 149.888C110.803 155.362 115.53 158.615 121.34 160.436C126.702 161.727 132.066 161.354 137.162 159.264C137.67 158.95 138.177 158.636 138.7 158.312C140.678 157.167 142.528 156.815 144.78 156.92C148.229 157.955 149.944 159.685 152.311 162.354C155.679 166.082 159.215 169.63 162.786 173.163C163.355 173.727 163.924 174.292 164.492 174.856C166.847 177.19 169.203 179.521 171.566 181.847C173.029 183.289 174.488 184.734 175.944 186.182C176.76 186.991 177.58 187.795 178.4 188.598C178.894 189.09 179.387 189.581 179.896 190.087C180.33 190.516 180.764 190.944 181.211 191.386C182.604 193.048 183.401 194.625 183.525 196.805C183.096 200.237 181.942 202.073 179.207 204.276C178.869 204.506 178.531 204.735 178.182 204.972C179.006 206.844 180.009 208.066 181.442 209.513C183.618 211.958 184.148 213.416 184.042 216.692C182.066 223.145 173.802 227.168 168.198 230.238C165.507 231.66 162.79 233.021 160.016 234.272C159.577 234.47 159.137 234.668 158.685 234.872C154.831 236.515 150.974 237.413 146.868 238.191C145.94 238.377 145.94 238.377 144.994 238.567C126.908 242.096 107.97 240.14 91.4539 231.928C90.7929 231.615 90.132 231.303 89.451 230.98C69.1298 220.832 55.8479 202.044 48.5111 181.152C45.065 170.161 44.8756 158.761 44.9307 147.345C44.9402 145.01 44.9307 142.676 44.9196 140.341C44.9107 130.551 45.3842 121.651 48.7858 112.384C49.0518 111.648 49.0518 111.648 49.3231 110.897C54.0538 98.1477 61.3557 87.9648 70.9439 78.396C71.4364 77.8967 71.9289 77.3974 72.4364 76.8829C101.036 49.5156 147.841 49.5918 178.5 73.0922Z" fill="#FF621F"/>
<path d="M731.944 56.0571C733.021 56.0559 733.021 56.0559 734.12 56.0547C734.914 56.0568 735.708 56.0589 736.502 56.0611C737.34 56.0612 738.177 56.0611 739.015 56.0608C741.287 56.0606 743.559 56.0641 745.832 56.0682C748.207 56.0718 750.582 56.0722 752.957 56.0729C757.455 56.0747 761.952 56.0795 766.449 56.0854C771.569 56.0919 776.69 56.0952 781.81 56.0981C792.342 56.1042 802.874 56.1145 813.406 56.1276C813.406 58.6347 812.068 59.5383 810.476 61.4016C809.749 63.5829 809.805 65.6137 809.817 67.8842C809.815 68.3137 809.812 68.7431 809.81 69.1856C809.767 71.5225 809.767 71.5225 810.476 73.7076C811.837 73.9463 813.205 74.1438 814.578 74.2936C814.578 74.8737 814.578 75.4539 814.578 76.0516C813.998 76.3417 813.998 76.3417 813.406 76.6376C813.406 77.0244 813.406 77.4111 813.406 77.8096C813.89 78.0997 814.373 78.3897 814.871 78.6886C815.355 78.9787 815.838 79.2687 816.336 79.5676C816.336 79.9544 816.336 80.3411 816.336 80.7396C815.501 81.4996 815.501 81.4996 814.395 82.3511C812.449 83.9851 811.269 85.2944 810.476 87.7716C810.419 91.3462 811.224 93.0877 813.601 95.7146C814.645 96.6195 815.665 97.1717 816.922 97.7336C816.922 98.9056 816.922 98.9056 815.457 100.444C814.974 100.903 814.49 101.362 813.992 101.836C814.681 102.108 814.681 102.108 815.384 102.385C816.922 103.008 816.922 103.008 818.094 103.594C819.589 103.636 821.068 103.648 822.562 103.63C822.976 103.628 823.39 103.625 823.817 103.622C824.839 103.615 825.862 103.605 826.884 103.594C826.857 104.258 826.83 104.923 826.802 105.608C826.51 112.937 826.51 112.937 830.022 119.127C832.625 121.57 835.411 122.189 838.861 122.565C841.861 122.25 844.416 121.295 846.522 119.063C846.774 118.744 847.025 118.426 847.284 118.097C847.707 117.565 848.13 117.034 848.566 116.486C849.146 116.486 849.726 116.486 850.324 116.486C850.446 116.868 850.567 117.25 850.693 117.644C851.989 121.32 853.36 123.838 856.77 125.862C858.153 126.416 859.403 126.734 860.872 127.034C861.218 133.261 860.788 139.509 857.942 145.2C859.102 145.2 860.263 145.2 861.458 145.2C861.893 157.803 857.773 170.439 849.482 180.03C842.481 187.305 832.927 192.59 822.653 192.852C820.282 192.876 817.913 192.86 815.542 192.837C814.513 192.834 813.484 192.831 812.456 192.83C809.769 192.823 807.082 192.806 804.395 192.786C801.645 192.768 798.895 192.76 796.145 192.751C790.765 192.733 785.385 192.703 780.004 192.666C780.01 193.414 780.01 193.414 780.016 194.177C780.051 198.884 780.078 203.592 780.095 208.299C780.104 210.719 780.117 213.139 780.137 215.559C780.156 217.896 780.166 220.232 780.171 222.569C780.174 223.459 780.181 224.35 780.19 225.24C780.203 226.489 780.205 227.739 780.204 228.989C780.21 230.054 780.21 230.054 780.216 231.142C779.932 233.765 779.156 235.814 777.152 237.579C776.57 237.918 776.57 237.918 775.975 238.264C775.59 238.497 775.205 238.731 774.808 238.971C772.189 240.175 769.568 240.209 766.721 240.226C766.341 240.229 765.96 240.232 765.568 240.235C764.316 240.243 763.063 240.247 761.811 240.251C761.38 240.252 760.95 240.254 760.507 240.256C758.228 240.264 755.95 240.27 753.672 240.272C751.331 240.276 748.989 240.29 746.648 240.306C744.837 240.317 743.026 240.32 741.215 240.321C740.353 240.323 739.49 240.328 738.628 240.335C733.228 240.38 728.497 240.259 723.821 237.311C719.791 233.162 720.081 227.807 719.91 222.394C719.898 222.012 719.886 221.629 719.873 221.235C719.443 207.286 719.538 193.322 719.528 179.367C719.527 177.385 719.524 175.403 719.522 173.421C719.515 166.818 719.509 160.216 719.507 153.613C719.507 152.986 719.507 152.986 719.507 152.345C719.506 151.926 719.506 151.507 719.506 151.075C719.506 150.226 719.506 149.378 719.505 148.529C719.505 148.108 719.505 147.687 719.505 147.253C719.503 140.393 719.492 133.534 719.479 126.675C719.465 119.593 719.458 112.511 719.457 105.429C719.456 101.468 719.453 97.5065 719.442 93.5456C719.433 89.8326 719.431 86.1198 719.437 82.4069C719.437 81.0476 719.435 79.6884 719.429 78.3291C719.421 76.4703 719.425 74.6118 719.431 72.753C719.426 72.2193 719.421 71.6856 719.417 71.1357C719.448 67.0156 719.944 62.713 722.519 59.3666C723.109 58.9055 723.109 58.9055 723.712 58.435C724.104 58.1139 724.496 57.7929 724.9 57.4621C727.163 56.0417 729.315 56.0549 731.944 56.0571ZM780.004 122.932C780.004 124.092 780.004 125.252 780.004 126.448C782.372 126.499 784.741 126.53 787.109 126.557C787.779 126.572 788.448 126.587 789.138 126.602C793.93 126.655 793.93 126.655 798.17 124.69C796.697 123.217 795.706 122.951 793.642 122.865C793.013 122.868 792.384 122.871 791.736 122.874C790.713 122.877 790.713 122.877 789.67 122.88C788.602 122.887 788.602 122.887 787.512 122.895C786.434 122.899 786.434 122.899 785.334 122.903C783.558 122.91 781.781 122.92 780.004 122.932Z" fill="#FF621F"/>
<path d="M856.77 145.2C858.317 145.2 859.864 145.2 861.458 145.2C861.893 157.803 857.773 170.439 849.482 180.03C842.48 187.305 832.927 192.59 822.653 192.852C820.282 192.876 817.912 192.86 815.542 192.837C814.513 192.834 813.484 192.832 812.456 192.83C809.769 192.823 807.082 192.806 804.395 192.786C801.645 192.768 798.895 192.76 796.145 192.752C790.765 192.733 785.384 192.703 780.004 192.666C780.01 193.414 780.01 193.414 780.016 194.177C780.051 198.884 780.078 203.592 780.095 208.299C780.104 210.719 780.117 213.139 780.137 215.559C780.156 217.896 780.166 220.233 780.171 222.569C780.174 223.46 780.18 224.35 780.19 225.24C780.203 226.49 780.204 227.739 780.204 228.989C780.209 230.055 780.209 230.055 780.215 231.142C779.932 233.765 779.156 235.814 777.152 237.579C776.569 237.918 776.569 237.918 775.975 238.264C775.59 238.497 775.205 238.731 774.808 238.971C772.189 240.175 769.568 240.21 766.721 240.226C766.34 240.229 765.96 240.232 765.568 240.235C764.315 240.243 763.063 240.247 761.81 240.251C761.38 240.252 760.95 240.254 760.506 240.256C758.228 240.265 755.95 240.27 753.672 240.272C751.33 240.276 748.989 240.29 746.648 240.306C744.837 240.317 743.026 240.32 741.215 240.321C740.353 240.323 739.49 240.328 738.628 240.335C733.228 240.381 728.496 240.259 723.821 237.312C720.646 234.043 720.153 230.341 720.175 225.965C720.177 225.287 720.179 224.609 720.18 223.91C720.185 223.208 720.19 222.506 720.195 221.783C720.198 221.069 720.201 220.356 720.203 219.621C720.21 217.863 720.22 216.105 720.232 214.348C721.639 215.75 723.043 217.152 724.407 218.596C726.49 220.54 728.805 220.298 731.487 220.302C732.129 220.306 732.129 220.306 732.784 220.311C734.2 220.32 735.617 220.323 737.034 220.327C738.02 220.33 739.006 220.333 739.992 220.337C742.061 220.343 744.13 220.346 746.199 220.348C748.844 220.352 751.489 220.366 754.134 220.382C756.172 220.393 758.21 220.396 760.248 220.397C761.223 220.399 762.197 220.404 763.172 220.411C764.54 220.422 765.906 220.42 767.274 220.417C767.872 220.425 767.872 220.425 768.483 220.433C771.731 220.405 774.551 219.778 776.929 217.44C779.334 213.209 779.261 208.931 779.246 204.2C779.254 203.341 779.263 202.481 779.273 201.622C779.296 199.376 779.302 197.131 779.305 194.885C779.31 192.587 779.332 190.288 779.353 187.99C779.39 183.493 779.41 178.997 779.418 174.5C779.876 174.495 780.333 174.49 780.805 174.485C785.157 174.439 789.509 174.388 793.861 174.331C796.098 174.302 798.334 174.275 800.571 174.252C802.737 174.231 804.903 174.203 807.068 174.173C807.887 174.162 808.706 174.153 809.524 174.146C815.22 174.096 820.678 173.602 826.298 172.742C827.028 172.642 827.028 172.642 827.772 172.539C836.854 171.217 845.442 164.485 850.91 157.506C853.546 153.595 855.485 149.735 856.77 145.2Z" fill="#FFCEAC"/>
<path d="M640.536 139.926C640.923 139.926 641.31 139.926 641.708 139.926C641.811 142.529 641.885 145.132 641.933 147.737C641.954 148.619 641.982 149.501 642.017 150.383C642.288 157.196 641.202 161.623 637.606 167.468C637.195 168.152 636.783 168.837 636.373 169.521C635.612 170.774 634.841 172.019 634.06 173.259C633.019 174.924 632.027 176.606 631.05 178.309C620.684 196.171 620.684 196.171 615.924 202.042C615.537 202.042 615.151 202.042 614.752 202.042C614.752 202.429 614.752 202.815 614.752 203.214C612.19 205.449 610.13 206.642 606.706 206.847C602.91 206.513 600.204 204.223 597.758 201.456C597.496 201.182 597.234 200.907 596.964 200.625C594.217 197.643 592.229 194.211 590.159 190.742C589.195 189.138 588.2 187.552 587.21 185.963C584.982 182.343 582.866 178.666 580.774 174.967C579.751 173.16 578.719 171.358 577.688 169.555C576.174 166.906 574.66 164.257 573.146 161.608C573.145 161.963 573.143 162.319 573.142 162.685C573.107 171.348 573.063 180.01 573.008 188.672C572.982 192.861 572.958 197.05 572.943 201.239C572.93 204.891 572.91 208.543 572.883 212.195C572.869 214.128 572.859 216.061 572.854 217.994C572.849 220.154 572.832 222.314 572.813 224.475C572.815 225.431 572.815 225.431 572.816 226.406C572.763 230.705 572.221 233.551 569.593 237.055C564.794 240.731 558.82 240.394 553.037 240.365C552.177 240.366 551.318 240.368 550.459 240.37C548.668 240.373 546.876 240.369 545.085 240.361C542.802 240.351 540.52 240.357 538.237 240.367C536.466 240.374 534.695 240.372 532.923 240.367C532.082 240.366 531.241 240.367 530.4 240.371C525.031 240.392 519.993 240.342 515.498 237.092C511.435 232.738 511.985 227.584 512.092 221.966C512.101 221.168 512.109 220.371 512.116 219.574C512.137 217.636 512.166 215.699 512.202 213.762C512.589 213.762 512.976 213.762 513.374 213.762C513.567 214.239 513.567 214.239 513.763 214.725C514.042 215.354 514.042 215.354 514.326 215.996C514.503 216.411 514.68 216.825 514.862 217.253C516.076 218.95 517.311 219.413 519.234 220.208C521.358 220.472 521.358 220.472 523.656 220.435C524.085 220.438 524.513 220.441 524.954 220.445C526.361 220.452 527.768 220.447 529.175 220.441C530.159 220.442 531.143 220.444 532.126 220.446C534.185 220.449 536.243 220.445 538.302 220.437C540.933 220.427 543.564 220.433 546.195 220.443C548.226 220.45 550.256 220.448 552.287 220.443C553.256 220.442 554.226 220.443 555.196 220.447C556.555 220.452 557.913 220.445 559.272 220.435C560.043 220.434 560.815 220.432 561.61 220.431C564.103 220.173 565.652 219.588 567.872 218.45C568.808 217.366 568.808 217.366 569.264 216.106C569.438 215.707 569.611 215.308 569.79 214.897C570.559 212.848 570.879 211.258 570.895 209.078C570.9 208.474 570.906 207.87 570.912 207.248C570.916 206.586 570.919 205.924 570.922 205.241C570.928 204.544 570.934 203.846 570.94 203.128C570.955 201.215 570.968 199.302 570.98 197.389C570.993 195.39 571.009 193.391 571.024 191.392C571.054 187.607 571.08 183.821 571.105 180.036C571.134 175.726 571.166 171.417 571.199 167.107C571.265 158.242 571.328 149.377 571.388 140.512C572.915 141.999 574.126 143.191 574.904 145.2C574.904 145.78 574.904 146.36 574.904 146.958C575.291 146.958 575.678 146.958 576.076 146.958C576.411 147.57 576.745 148.182 577.09 148.812C582.215 158.136 587.472 167.392 593.363 176.258C593.644 176.682 593.926 177.105 594.215 177.542C597.958 183.262 597.958 183.262 603.618 186.806C606.69 187.335 608.92 187.3 611.543 185.54C624.466 175.68 632.775 153.888 640.536 139.926Z" fill="#FFCEAC"/>
<path d="M45.7459 151.06C46.7606 152.907 47.3135 154.698 47.8266 156.739C47.9947 157.39 48.1628 158.04 48.336 158.711C48.6804 160.064 49.0223 161.417 49.3615 162.772C52.8869 176.349 60.8136 187.319 70.3579 197.354C70.7643 197.805 71.1707 198.256 71.5894 198.72C79.0355 206.698 89.2637 212.742 99.548 216.252C99.9287 216.382 100.309 216.512 100.702 216.647C102.103 217.094 103.511 217.484 104.932 217.864C105.288 217.96 105.643 218.056 106.01 218.156C113.123 220.04 119.894 220.633 127.237 220.574C127.758 220.573 128.279 220.571 128.817 220.57C137.683 220.529 145.705 219.527 154.156 216.692C154.883 216.467 155.611 216.243 156.36 216.012C163.049 213.716 169.749 209.984 175.252 205.558C177.026 205.417 177.85 205.875 179.217 206.981C181.348 208.996 183.118 210.932 184.042 213.762C184.099 217.354 183.315 218.903 180.968 221.523C179.332 223.159 177.538 224.456 175.618 225.738C175.213 226.012 174.807 226.287 174.389 226.569C170.504 229.139 166.456 231.264 162.226 233.203C161.324 233.622 160.436 234.069 159.551 234.521C142.774 242.526 119.574 241.868 102.002 236.616C98.3652 235.311 94.9094 233.646 91.4539 231.928C90.7929 231.615 90.132 231.302 89.451 230.98C69.1298 220.832 55.8478 202.043 48.5111 181.152C46.1797 173.716 42.0323 158.487 45.7459 151.06Z" fill="#FFCEAC"/>
<path d="M338.16 152.818C338.547 152.818 338.933 152.818 339.332 152.818C339.454 153.372 339.575 153.927 339.7 154.498C341.153 160.831 343.285 166.749 345.778 172.742C346.06 173.433 346.341 174.124 346.632 174.836C349.497 181.197 353.474 186.869 358.084 192.08C358.578 192.652 359.072 193.224 359.581 193.813C373.383 209.54 392.653 219.35 413.638 220.735C417.777 220.923 421.919 220.876 426.06 220.794C425.867 220.214 425.673 219.634 425.474 219.036C425.403 217.792 425.371 216.546 425.364 215.3C425.356 214.643 425.347 213.986 425.339 213.309C425.472 211.448 425.853 210.162 426.646 208.488C426.839 208.488 427.033 208.488 427.232 208.488C427.298 209.295 427.298 209.295 427.365 210.118C427.816 214.334 428.262 217.31 431.192 220.471C431.92 221.38 431.92 221.38 431.92 223.138C430.956 224.127 429.978 225.103 428.99 226.068C426.538 229.045 426.469 233.05 426.744 236.774C426.875 237.703 427.048 238.626 427.232 239.546C420.389 241.13 412.998 240.068 406.136 238.96C405.401 238.841 405.401 238.841 404.652 238.721C384.423 235.253 365.66 222.679 353.579 206.107C352.927 205.146 352.28 204.182 351.638 203.214C351.182 202.619 350.727 202.025 350.258 201.412C348.219 198.566 346.851 195.405 345.412 192.226C344.992 191.329 344.992 191.329 344.565 190.413C342.086 184.988 340.546 179.527 339.552 173.657C339.479 173.23 339.405 172.803 339.33 172.363C338.247 165.834 338.079 159.42 338.16 152.818Z" fill="#FFCEAC"/>
<path d="M247.916 162.78C255.458 162.78 263 162.78 270.77 162.78C270.77 168.968 270.77 175.156 270.77 181.532C263.422 181.532 256.073 181.532 248.502 181.532C248.522 185.115 248.543 188.699 248.564 192.391C248.573 194.666 248.581 196.942 248.588 199.217C248.598 202.826 248.611 206.434 248.635 210.043C248.654 212.953 248.664 215.863 248.669 218.774C248.672 219.882 248.678 220.991 248.688 222.099C248.701 223.656 248.702 225.212 248.702 226.769C248.708 227.224 248.714 227.678 248.721 228.146C248.703 231.332 248.074 233.709 246.744 236.616C241.927 240.873 235.583 240.315 229.551 240.308C228.677 240.31 227.803 240.313 226.929 240.316C225.103 240.32 223.277 240.32 221.451 240.317C219.124 240.313 216.796 240.323 214.469 240.337C212.665 240.346 210.862 240.346 209.059 240.344C208.201 240.345 207.344 240.348 206.486 240.353C195.764 240.419 195.764 240.419 192.324 237.42C188.075 233.029 188.578 227.753 188.657 222.002C188.662 221.266 188.667 220.53 188.673 219.772C188.687 217.964 188.706 216.156 188.73 214.348C190.137 215.751 191.541 217.152 192.905 218.596C194.99 220.542 197.309 220.298 199.994 220.302C200.638 220.307 200.638 220.307 201.294 220.311C202.713 220.32 204.133 220.324 205.552 220.327C206.54 220.33 207.527 220.334 208.515 220.337C210.586 220.343 212.658 220.347 214.729 220.349C217.38 220.352 220.03 220.366 222.68 220.383C224.721 220.393 226.761 220.396 228.802 220.397C229.778 220.399 230.755 220.404 231.732 220.412C233.101 220.422 234.47 220.42 235.838 220.417C236.24 220.422 236.641 220.427 237.054 220.433C239.739 220.41 241.488 219.747 243.814 218.45C244.201 218.45 244.588 218.45 244.986 218.45C245.155 218.027 245.324 217.604 245.499 217.168C245.892 216.185 246.309 215.21 246.774 214.258C247.505 212.064 247.51 209.972 247.517 207.685C247.523 207.198 247.529 206.712 247.535 206.211C247.553 204.61 247.563 203.009 247.573 201.408C247.584 200.295 247.595 199.183 247.607 198.07C247.637 195.146 247.66 192.222 247.682 189.299C247.71 185.788 247.746 182.278 247.78 178.767C247.832 173.438 247.873 168.109 247.916 162.78Z" fill="#FFCEAC"/>
<path d="M502.24 146.372C502.82 146.662 502.82 146.662 503.412 146.958C503.823 149.278 503.883 151.638 503.998 153.99C504.035 154.736 504.035 154.736 504.073 155.498C504.451 171.536 500.296 188.239 491.106 201.456C490.719 201.456 490.332 201.456 489.934 201.456C489.731 200.671 489.731 200.671 489.524 199.872C489.333 199.186 489.142 198.5 488.945 197.793C488.761 197.113 488.578 196.433 488.389 195.733C487.319 193.195 485.889 192.139 483.492 190.88C478.92 189.173 475.582 189.613 471.182 191.494C470.206 191.886 469.229 192.277 468.252 192.666C468.032 192.305 467.812 191.945 467.586 191.574C465.361 187.854 465.361 187.854 461.806 185.634C456.953 184.738 452.983 184.737 448.731 187.465C445.596 190.818 445.111 194.653 444.812 199.112C443.026 199.641 441.505 199.728 439.648 199.661C436.584 199.634 433.814 199.773 431.37 201.822C431.165 202.088 430.96 202.354 430.748 202.628C429.259 202.049 428.529 201.652 427.662 200.286C425.945 196.026 424.931 191.951 426.708 187.543C428.804 183.755 431.247 181.17 435.436 179.774C436.509 179.719 437.584 179.697 438.659 179.7C439.221 179.699 439.783 179.697 440.362 179.696C441.882 179.774 441.882 179.774 443.64 180.36C443.609 179.86 443.609 179.86 443.578 179.35C443.44 175.411 444.246 172.753 446.423 169.409C449.579 166.166 451.786 165.544 456.275 165.417C459.685 165.389 461.48 165.913 464.15 168.054C465.221 169.139 465.221 169.139 466.054 170.178C466.955 171.287 467.825 172.315 468.838 173.328C469.273 172.953 469.708 172.578 470.156 172.192C473.101 169.984 476.396 170.03 479.972 170.398C483.872 171.434 486.623 173.422 488.762 176.844C489.479 178.395 490.003 179.896 490.52 181.532C492.564 178.009 494.314 174.454 495.867 170.691C496.063 170.228 496.258 169.764 496.46 169.287C498.314 164.844 499.945 160.555 500.518 155.748C500.93 152.562 501.487 149.492 502.24 146.372Z" fill="#FFCEAC"/>
<path d="M177.01 90.7017C180.165 92.4301 182.372 93.8084 184.042 97.1477C184.182 98.2922 184.182 98.2922 184.225 99.6382C184.258 100.295 184.258 100.295 184.292 100.966C183.703 104.399 180.868 106.948 178.494 109.34C178.181 109.66 177.868 109.979 177.546 110.309C176.519 111.355 175.488 112.398 174.455 113.439C174.101 113.797 173.747 114.155 173.383 114.524C171.511 116.416 169.636 118.305 167.758 120.191C165.823 122.136 163.901 124.092 161.982 126.052C160.498 127.561 159.006 129.061 157.511 130.559C156.798 131.277 156.089 131.997 155.383 132.722C154.395 133.735 153.394 134.734 152.389 135.731C152.103 136.03 151.817 136.329 151.522 136.637C149.149 138.948 147.389 139.25 144.194 139.34C142.722 138.669 142.722 138.669 141.447 137.692C136.011 134.117 129.354 134.16 123.098 135.238C116.845 136.828 111.799 140.926 108.448 146.372C108.034 147.141 107.628 147.916 107.276 148.716C106.889 148.716 106.503 148.716 106.104 148.716C103.685 143.173 103.035 136.648 105.211 130.916C108.169 124.203 112.754 119.389 119.582 116.486C122.777 115.731 125.911 115.77 129.178 115.753C129.773 115.741 130.368 115.729 130.982 115.717C134.921 115.696 138.136 115.897 141.191 118.647C142.887 119.694 144.146 119.969 146.139 119.841C148.198 119.283 149.138 118.351 150.686 116.882C150.981 116.603 151.276 116.325 151.58 116.038C156.587 111.268 161.439 106.334 166.316 101.433C167.356 100.389 168.397 99.3458 169.438 98.3025C171.963 95.7704 174.487 93.2367 177.01 90.7017Z" fill="#FFCEAC"/>
<path d="M700.308 81.9116C700.501 81.9116 700.695 81.9116 700.894 81.9116C701.651 84.8087 701.565 87.6782 701.562 90.6495C701.564 91.2389 701.566 91.8284 701.568 92.4357C701.573 94.4131 701.574 96.3906 701.574 98.3681C701.577 99.7851 701.58 101.202 701.583 102.619C701.591 106.47 701.595 110.322 701.597 114.173C701.599 116.58 701.601 118.986 701.604 121.393C701.611 128.06 701.617 134.727 701.619 141.395C701.619 142.034 701.619 142.034 701.62 142.687C701.62 143.328 701.62 143.328 701.62 143.983C701.62 144.849 701.621 145.715 701.621 146.581C701.621 147.011 701.621 147.441 701.621 147.883C701.624 154.842 701.634 161.801 701.647 168.76C701.661 175.91 701.669 183.061 701.669 190.211C701.67 194.223 701.673 198.236 701.684 202.248C701.694 206.023 701.695 209.798 701.69 213.574C701.689 214.957 701.692 216.341 701.697 217.725C701.705 219.618 701.701 221.511 701.695 223.404C701.7 223.948 701.705 224.492 701.71 225.053C701.677 229.397 701.068 233.582 698.477 237.165C693.651 240.627 688.201 240.393 682.492 240.365C681.62 240.366 680.749 240.368 679.877 240.37C678.057 240.373 676.237 240.369 674.417 240.361C672.1 240.351 669.782 240.357 667.465 240.367C665.666 240.373 663.868 240.371 662.07 240.367C661.216 240.366 660.362 240.367 659.508 240.371C648.294 240.414 648.294 240.414 644.85 237.585C642.2 234.609 641.559 231.812 641.594 227.924C641.599 226.788 641.599 226.788 641.605 225.629C641.615 224.835 641.625 224.041 641.635 223.247C641.641 222.442 641.646 221.637 641.651 220.831C641.665 218.865 641.684 216.9 641.708 214.934C643.956 217.163 643.956 217.163 644.821 218.193C647.55 220.518 650.569 221.015 654.05 221.03C654.441 221.034 654.833 221.038 655.236 221.043C656.517 221.053 657.798 221.051 659.08 221.048C659.979 221.05 660.879 221.053 661.779 221.057C663.661 221.062 665.543 221.061 667.425 221.055C669.823 221.048 672.22 221.06 674.618 221.077C676.476 221.088 678.334 221.088 680.191 221.084C681.075 221.084 681.958 221.088 682.841 221.095C690.165 221.211 690.165 221.211 696.792 218.45C699.481 215.063 700.15 211.779 700.097 207.558C700.104 206.747 700.104 206.747 700.111 205.92C700.124 204.122 700.116 202.325 700.108 200.527C700.113 199.233 700.12 197.939 700.127 196.645C700.144 193.142 700.142 189.638 700.137 186.135C700.136 182.47 700.15 178.805 700.163 175.14C700.183 168.992 700.192 162.844 700.193 156.696C700.195 150.365 700.203 144.035 700.219 137.704C700.22 137.118 700.22 137.118 700.222 136.52C700.227 134.56 700.232 132.6 700.237 130.639C700.279 114.397 700.3 98.1543 700.308 81.9116Z" fill="#FFCEAC"/>
<path d="M329.956 82.498C330.149 82.498 330.343 82.498 330.542 82.498C330.582 101.539 330.613 120.581 330.632 139.622C330.634 141.87 330.636 144.118 330.638 146.366C330.639 146.814 330.639 147.262 330.64 147.723C330.647 154.969 330.661 162.215 330.677 169.462C330.694 176.897 330.704 184.333 330.707 191.769C330.71 196.357 330.717 200.945 330.732 205.533C330.742 209.051 330.743 212.57 330.741 216.088C330.741 217.531 330.745 218.974 330.751 220.418C330.76 222.387 330.758 224.356 330.753 226.326C330.758 226.897 330.763 227.469 330.769 228.058C330.747 231.362 330.389 233.705 328.784 236.616C323.883 240.833 317.674 240.315 311.591 240.308C310.717 240.311 309.843 240.313 308.968 240.316C307.143 240.32 305.317 240.32 303.491 240.317C301.163 240.314 298.836 240.324 296.509 240.337C294.705 240.346 292.902 240.346 291.099 240.344C290.241 240.345 289.383 240.348 288.526 240.354C277.847 240.419 277.847 240.419 274.364 237.437C270.578 233.606 270.638 228.856 270.667 223.756C270.677 223.069 270.686 222.381 270.697 221.673C270.702 220.968 270.707 220.262 270.713 219.535C270.726 217.806 270.746 216.077 270.77 214.348C272.177 215.751 273.581 217.152 274.945 218.597C277.03 220.543 279.349 220.298 282.034 220.302C282.463 220.305 282.892 220.308 283.334 220.311C284.753 220.32 286.173 220.324 287.592 220.327C288.58 220.33 289.567 220.334 290.555 220.337C292.626 220.343 294.698 220.347 296.769 220.349C299.419 220.352 302.07 220.366 304.72 220.383C306.76 220.394 308.801 220.397 310.842 220.398C311.818 220.399 312.795 220.404 313.772 220.412C315.141 220.422 316.509 220.421 317.878 220.417C318.48 220.425 318.48 220.425 319.094 220.433C321.769 220.41 323.577 219.843 325.854 218.45C328.985 215.058 329.543 212.468 329.533 207.933C329.536 207.397 329.54 206.862 329.543 206.31C329.553 204.511 329.555 202.713 329.557 200.914C329.562 199.626 329.568 198.339 329.575 197.051C329.591 193.551 329.599 190.051 329.607 186.551C329.616 182.894 329.632 179.238 329.647 175.582C329.671 169.444 329.691 163.306 329.709 157.168C329.726 150.845 329.746 144.523 329.77 138.201C329.771 137.811 329.773 137.422 329.774 137.02C329.781 135.065 329.789 133.11 329.796 131.155C329.857 114.936 329.909 98.7169 329.956 82.498Z" fill="#FFCEAC"/>
<path d="M434.154 119.892C438.842 123.212 442.338 127.617 443.493 133.296C443.56 134.138 443.606 134.981 443.64 135.824C443.67 136.432 443.7 137.041 443.731 137.669C443.835 141.436 443.732 144.229 441.882 147.544C441.58 147.157 441.278 146.77 440.966 146.372C440.495 145.791 440.024 145.211 439.538 144.614C439.253 144.246 438.968 143.878 438.675 143.499C434.457 138.304 429.18 135.526 422.544 134.652C417.99 134.514 414.183 135.314 410.238 137.582C409.755 137.852 409.273 138.122 408.775 138.401C405 140.757 402.899 143.522 400.624 147.322C400.316 147.782 400.007 148.242 399.69 148.716C399.303 148.716 398.916 148.716 398.518 148.716C396.807 142.766 395.808 134.801 398.481 129.011C402.657 122.327 407.714 117.856 415.278 115.744C422.49 114.186 427.992 116.079 434.154 119.892Z" fill="#FFCEAC"/>
<path d="M480.119 202.518C482.347 203.681 483.693 204.727 484.756 207.045C485.414 209.77 485.462 212.36 485.466 215.153C485.48 215.685 485.494 216.217 485.509 216.765C485.528 221.09 484.577 224.249 481.62 227.459C478.628 229.188 475.917 229.787 472.501 229.217C469.921 228.126 468.308 227.005 466.718 224.685C465.524 221.54 465.654 218.561 465.688 215.227C465.681 214.573 465.675 213.92 465.668 213.247C465.69 207.058 465.69 207.058 467.666 204.386C471.563 201.456 475.625 200.41 480.119 202.518Z" fill="#F26E1D"/>
<path d="M779.418 104.18C783.243 104.144 783.243 104.144 787.146 104.107C788.345 104.091 788.345 104.091 789.568 104.074C790.203 104.071 790.838 104.068 791.493 104.065C792.464 104.056 792.464 104.056 793.455 104.047C796.994 104.311 798.757 105.686 801.1 108.282C803.206 111.441 803.269 115.117 802.858 118.83C802.143 121.063 801.361 122.896 799.443 124.305C798.17 124.69 798.17 124.69 796.852 124.143C795.023 123.434 793.578 123.333 791.621 123.275C790.943 123.253 790.265 123.23 789.567 123.207C788.864 123.188 788.162 123.17 787.439 123.152C786.725 123.129 786.012 123.106 785.277 123.083C783.519 123.028 781.762 122.978 780.004 122.932C780.004 124.286 780.004 125.639 780.004 127.034C779.811 127.034 779.617 127.034 779.418 127.034C779.418 119.492 779.418 111.95 779.418 104.18Z" fill="#FFCEAC"/>
<path d="M461.806 229.584C463.453 230.635 464.449 231.353 465.322 233.1C466.031 241.568 466.031 241.568 464.223 244.197C461.997 245.666 460.557 245.88 457.926 245.708C455.711 245.228 454.834 244.343 453.602 242.476C453.126 240.498 453.126 240.498 453.016 238.374C452.968 237.673 452.919 236.972 452.87 236.249C453.069 233.559 453.958 232.218 455.763 230.279C457.753 229.257 459.644 229.185 461.806 229.584Z" fill="#F26E1D"/>
<path d="M465.908 215.52C467.666 216.106 467.666 216.106 468.801 217.534C470.239 219.321 471.334 220.065 473.613 220.384C476.564 220.4 478.623 220.15 481.144 218.45C481.947 217.491 482.733 216.517 483.488 215.52C483.875 215.52 484.261 215.52 484.66 215.52C485.787 217.775 485.603 220.306 484.825 222.648C483.648 225.183 482.442 226.985 479.972 228.412C476.579 229.639 473.997 229.851 470.596 228.412C468.114 226.833 466.855 225.343 465.908 222.552C465.769 220.2 465.805 217.873 465.908 215.52Z" fill="#FFCEAC"/>
<path d="M453.602 237.788C453.989 237.788 454.376 237.788 454.774 237.788C455.161 238.368 455.548 238.948 455.946 239.546C458.051 240.247 459.595 240.326 461.806 240.132C463.162 239.021 463.162 239.021 464.15 237.788C464.537 237.788 464.924 237.788 465.322 237.788C465.575 240.319 465.455 241.647 464.223 243.904C462.77 245.448 461.554 245.696 459.462 245.808C457.316 245.668 456.577 245.436 454.737 244.197C453.415 242.192 453.108 240.759 453.016 238.374C453.209 238.18 453.403 237.987 453.602 237.788Z" fill="#FFCEAC"/>
<path d="M447.522 226.214C447.982 226.359 448.441 226.504 448.914 226.653C449.6 228.025 449.617 228.935 449.646 230.462C449.669 231.16 449.669 231.16 449.692 231.873C449.629 232.277 449.565 232.682 449.5 233.099C447.742 234.271 447.742 234.271 446.204 234.088C444.812 233.685 444.812 233.685 444.226 233.099C444.107 231.802 444.107 231.802 444.079 230.206C444.064 229.681 444.049 229.156 444.034 228.615C444.097 228.161 444.161 227.707 444.226 227.239C445.984 226.067 445.984 226.067 447.522 226.214Z" fill="#ED5A1A"/>
<path d="M809.304 90.7017C809.691 90.7017 810.078 90.7017 810.476 90.7017C810.802 91.3301 811.129 91.9586 811.465 92.6062C812.816 94.9813 814.464 96.5044 816.922 97.7337C816.922 98.1204 816.922 98.5072 816.922 98.9057C814.371 101.25 814.371 101.25 812.234 101.25C809.959 97.4335 809.217 95.2194 809.304 90.7017Z" fill="#FFCEAC"/>
<path d="M444.226 230.756C445.58 231.143 446.933 231.529 448.328 231.928C448.328 231.541 448.328 231.154 448.328 230.756C448.715 230.756 449.102 230.756 449.5 230.756C449.307 231.723 449.113 232.69 448.914 233.686C447.559 234.052 447.559 234.052 445.984 234.272C445.404 233.885 444.824 233.498 444.226 233.1C444.226 232.326 444.226 231.553 444.226 230.756Z" fill="#FFCEAC"/>
<path d="M114.308 119.416C114.695 119.609 115.082 119.803 115.48 120.002C113.159 122.323 110.839 124.643 108.448 127.034C108.448 124.855 108.96 124.478 110.389 122.895C110.93 122.287 110.93 122.287 111.481 121.666C112.55 120.588 112.55 120.588 114.308 119.416Z" fill="#FFCEAC"/>
<path d="M810.476 74.2939C811.83 74.2939 813.183 74.2939 814.578 74.2939C814.578 74.8741 814.578 75.4542 814.578 76.0519C813.611 76.4387 812.644 76.8255 811.648 77.2239C811.261 76.8372 810.875 76.4504 810.476 76.0519C810.476 75.4718 810.476 74.8917 810.476 74.2939Z" fill="#FFCEAC"/>
<path d="M432.506 180.946C432.893 181.139 433.28 181.333 433.678 181.532C432.324 182.885 430.971 184.239 429.576 185.634C429.189 185.44 428.803 185.247 428.404 185.048C429.771 183.68 431.139 182.313 432.506 180.946Z" fill="#FFCEAC"/>
</svg>
